cumTime	delTime	event	pitch	vel	chan	value
cumTime	delTime	event	pitch	vel	chan	value
0	0	non	69	110	0	na
160	160	non	69	0	0	na
192	32	non	70	110	0	na
352	160	non	70	0	0	na
384	32	non	72	110	0	na
544	160	non	72	0	0	na
576	32	non	70	110	0	na
670	94	non	70	0	0	na
672	2	non	69	110	0	na
766	94	non	69	0	0	na
768	2	non	74	110	0	na
862	94	non	74	0	0	na
864	2	non	72	110	0	na
958	94	non	72	0	0	na
960	2	non	70	110	0	na
1120	160	non	70	0	0	na
1152	32	non	69	110	0	na
1312	160	non	69	0	0	na
1344	32	non	70	110	0	na
1438	94	non	70	0	0	na
1440	2	non	72	110	0	na
1534	94	non	72	0	0	na
1728	194	non	74	110	0	na
1888	160	non	74	0	0	na
1920	32	non	72	110	0	na
2080	160	non	72	0	0	na
2304	224	non	70	110	0	na
2464	160	non	70	0	0	na
2496	32	non	72	110	0	na
2656	160	non	72	0	0	na
2880	224	non	70	110	0	na
2974	94	non	70	0	0	na
2976	2	non	72	110	0	na
3070	94	non	72	0	0	na
3072	2	non	74	110	0	na
3232	160	non	74	0	0	na
3264	32	non	72	110	0	na
3358	94	non	72	0	0	na
3360	2	non	70	110	0	na
3454	94	non	70	0	0	na
3456	2	non	70	110	0	na
3616	160	non	70	0	0	na
3648	32	non	70	110	0	na
3808	160	non	70	0	0	na
3840	32	non	72	110	0	na
3934	94	non	72	0	0	na
3936	2	non	70	110	0	na
4030	94	non	70	0	0	na
4032	2	non	69	110	0	na
4126	94	non	69	0	0	na
4128	2	non	70	110	0	na
4222	94	non	70	0	0	na
4224	2	non	72	110	0	na
4384	160	non	72	0	0	na
4416	32	non	75	110	0	na
4576	160	non	75	0	0	na
4608	32	non	74	110	0	na
4702	94	non	74	0	0	na
4704	2	non	72	110	0	na
4798	94	non	72	0	0	na
4800	2	non	74	110	0	na
4960	160	non	74	0	0	na
4992	32	non	72	110	0	na
5152	160	non	72	0	0	na
5184	32	non	70	110	0	na
5344	160	non	70	0	0	na
5376	32	non	72	110	0	na
5728	352	non	72	0	0	na
5952	224	non	74	110	0	na
6046	94	non	74	0	0	na
6048	2	non	72	110	0	na
6142	94	non	72	0	0	na
6144	2	non	70	110	0	na
6238	94	non	70	0	0	na
6240	2	non	72	110	0	na
6334	94	non	72	0	0	na
6336	2	non	72	110	0	na
6496	160	non	72	0	0	na
6528	32	non	70	110	0	na
6688	160	non	70	0	0	na
6720	32	non	69	110	0	na
6880	160	non	69	0	0	na
6912	32	non	70	110	0	na
7072	160	non	70	0	0	na
7488	416	non	70	110	0	na
7648	160	non	70	0	0	na
7680	32	non	72	110	0	na
7840	160	non	72	0	0	na
7872	32	non	74	110	0	na
8032	160	non	74	0	0	na
8064	32	non	72	110	0	na
8158	94	non	72	0	0	na
8160	2	non	70	110	0	na
8254	94	non	70	0	0	na
8256	2	non	72	110	0	na
8416	160	non	72	0	0	na
8448	32	non	74	110	0	na
8542	94	non	74	0	0	na
8544	2	non	75	110	0	na
8638	94	non	75	0	0	na
8640	2	non	75	110	0	na
8800	160	non	75	0	0	na
8832	32	non	74	110	0	na
8992	160	non	74	0	0	na
9024	32	non	72	110	0	na
9184	160	non	72	0	0	na
9216	32	non	70	110	0	na
9310	94	non	70	0	0	na
9312	2	non	72	110	0	na
9406	94	non	72	0	0	na
9408	2	non	72	110	0	na
9744	336	non	72	0	0	na
9792	48	non	70	110	0	na
9952	160	non	70	0	0	na
9984	32	non	69	110	0	na
10144	160	non	69	0	0	na
10176	32	non	70	110	0	na
10512	336	non	70	0	0	na
10944	432	non	69	110	0	na
11104	160	non	69	0	0	na
11136	32	non	70	110	0	na
11296	160	non	70	0	0	na
11328	32	non	72	110	0	na
11488	160	non	72	0	0	na
11520	32	non	70	110	0	na
11614	94	non	70	0	0	na
11616	2	non	69	110	0	na
11710	94	non	69	0	0	na
11712	2	non	74	110	0	na
11806	94	non	74	0	0	na
11808	2	non	72	110	0	na
11902	94	non	72	0	0	na
11904	2	non	70	110	0	na
12064	160	non	70	0	0	na
12096	32	non	69	110	0	na
12256	160	non	69	0	0	na
12288	32	non	70	110	0	na
12382	94	non	70	0	0	na
12384	2	non	72	110	0	na
12478	94	non	72	0	0	na
12480	2	non	74	110	0	na
12574	94	non	74	0	0	na
12576	2	non	72	110	0	na
12670	94	non	72	0	0	na
12672	2	non	72	110	0	na
12832	160	non	72	0	0	na
13056	224	non	70	110	0	na
13216	160	non	70	0	0	na
13248	32	non	72	110	0	na
13408	160	non	72	0	0	na
13632	224	non	70	110	0	na
13726	94	non	70	0	0	na
13728	2	non	72	110	0	na
13822	94	non	72	0	0	na
13824	2	non	74	110	0	na
13984	160	non	74	0	0	na
14016	32	non	72	110	0	na
14110	94	non	72	0	0	na
14112	2	non	70	110	0	na
14206	94	non	70	0	0	na
14208	2	non	70	110	0	na
14368	160	non	70	0	0	na
14400	32	non	70	110	0	na
14542	142	non	70	0	0	na
14544	2	non	72	110	0	na
14590	46	non	72	0	0	na
14592	2	non	72	110	0	na
14686	94	non	72	0	0	na
14688	2	non	69	110	0	na
14782	94	non	69	0	0	na
14784	2	non	69	110	0	na
14944	160	non	69	0	0	na
14976	32	non	72	110	0	na
15136	160	non	72	0	0	na
15168	32	non	75	110	0	na
15262	94	non	75	0	0	na
15264	2	non	74	110	0	na
15358	94	non	74	0	0	na
15360	2	non	74	110	0	na
15454	94	non	74	0	0	na
15456	2	non	72	110	0	na
15550	94	non	72	0	0	na
15552	2	non	74	110	0	na
15712	160	non	74	0	0	na
15744	32	non	72	110	0	na
15904	160	non	72	0	0	na
15936	32	non	70	110	0	na
16030	94	non	70	0	0	na
16032	2	non	69	110	0	na
16126	94	non	69	0	0	na
16128	2	non	70	110	0	na
16222	94	non	70	0	0	na
16224	2	non	72	110	0	na
16318	94	non	72	0	0	na
16704	386	non	74	110	0	na
16798	94	non	74	0	0	na
16800	2	non	72	110	0	na
16894	94	non	72	0	0	na
16896	2	non	72	110	0	na
17056	160	non	72	0	0	na
17088	32	non	70	110	0	na
17182	94	non	70	0	0	na
17184	2	non	72	110	0	na
17278	94	non	72	0	0	na
17280	2	non	70	110	0	na
17440	160	non	70	0	0	na
17472	32	non	69	110	0	na
17632	160	non	69	0	0	na
17664	32	non	70	110	0	na
17824	160	non	70	0	0	na
17856	32	non	77	110	0	na
18016	160	non	77	0	0	na
18048	32	non	75	110	0	na
18142	94	non	75	0	0	na
18144	2	non	74	110	0	na
18238	94	non	74	0	0	na
18240	2	non	72	110	0	na
18334	94	non	72	0	0	na
18336	2	non	70	110	0	na
18430	94	non	70	0	0	na
18432	2	non	72	110	0	na
18526	94	non	72	0	0	na
18528	2	non	74	110	0	na
18622	94	non	74	0	0	na
18624	2	non	74	110	0	na
18784	160	non	74	0	0	na
18816	32	non	72	110	0	na
18976	160	non	72	0	0	na
19200	224	non	74	110	0	na
19294	94	non	74	0	0	na
19296	2	non	75	110	0	na
19390	94	non	75	0	0	na
19392	2	non	75	110	0	na
19552	160	non	75	0	0	na
19584	32	non	74	110	0	na
19744	160	non	74	0	0	na
19776	32	non	72	110	0	na
19936	160	non	72	0	0	na
19968	32	non	74	110	0	na
20128	160	non	74	0	0	na
20160	32	non	72	110	0	na
20320	160	non	72	0	0	na
20352	32	non	70	110	0	na
20512	160	non	70	0	0	na
20544	32	non	70	110	0	na
20704	160	non	70	0	0	na
20736	32	non	72	110	0	na
20896	160	non	72	0	0	na
20928	32	non	74	110	0	na
21088	160	non	74	0	0	na
21120	32	non	72	110	0	na
21214	94	non	72	0	0	na
21216	2	non	70	110	0	na
21310	94	non	70	0	0	na
21312	2	non	72	110	0	na
21454	142	non	72	0	0	na
21456	2	non	74	110	0	na
21574	118	non	74	0	0	na
21576	2	non	75	110	0	na
21694	118	non	75	0	0	na
21696	2	non	75	110	0	na
21856	160	non	75	0	0	na
21888	32	non	74	110	0	na
22048	160	non	74	0	0	na
22080	32	non	72	110	0	na
22240	160	non	72	0	0	na
22272	32	non	70	110	0	na
22366	94	non	70	0	0	na
22368	2	non	72	110	0	na
22462	94	non	72	0	0	na
22464	2	non	72	110	0	na
22624	160	non	72	0	0	na
23040	416	non	70	110	0	na
23200	160	non	70	0	0	na
23232	32	non	69	110	0	na
23392	160	non	69	0	0	na
23424	32	non	70	110	0	na
23584	160	non	70	0	0	na
23616	32	non	72	110	0	na
23776	160	non	72	0	0	na
23808	32	non	74	110	0	na
23968	160	non	74	0	0	na
24000	32	non	72	110	0	na
24094	94	non	72	0	0	na
24096	2	non	70	110	0	na
24190	94	non	70	0	0	na
24192	2	non	72	110	0	na
24286	94	non	72	0	0	na
24288	2	non	70	110	0	na
24382	94	non	70	0	0	na
24384	2	non	69	110	0	na
24544	160	non	69	0	0	na
24576	32	non	70	110	0	na
24736	160	non	70	0	0	na
24768	32	non	70	110	0	na
24862	94	non	70	0	0	na
24864	2	non	72	110	0	na
24958	94	non	72	0	0	na
24960	2	non	74	110	0	na
25120	160	non	74	0	0	na
25152	32	non	72	110	0	na
25312	160	non	72	0	0	na
25536	224	non	75	110	0	na
25696	160	non	75	0	0	na
25728	32	non	75	110	0	na
26064	336	non	75	0	0	na
26112	48	non	74	110	0	na
26448	336	non	74	0	0	na
26496	48	non	72	110	0	na
26656	160	non	72	0	0	na
26688	32	non	70	110	0	na
26848	160	non	70	0	0	na
26880	32	non	72	110	0	na
27216	336	non	72	0	0	na
27264	48	non	74	110	0	na
27984	720	non	74	0	0	na
cumTime	delTime	event	pitch	vel	chan	value
cumTime	delTime	event	pitch	vel	chan	value
192	192	non	70	110	1	na
352	160	non	70	0	1	na
576	224	non	70	110	1	na
736	160	non	70	0	1	na
960	224	non	70	110	1	na
1120	160	non	70	0	1	na
1344	224	non	70	110	1	na
1504	160	non	70	0	1	na
1920	416	non	67	110	1	na
2080	160	non	67	0	1	na
2304	224	non	67	110	1	na
2464	160	non	67	0	1	na
2688	224	non	67	110	1	na
2848	160	non	67	0	1	na
3072	224	non	66	110	1	na
3232	160	non	66	0	1	na
3456	224	non	65	110	1	na
3616	160	non	65	0	1	na
3840	224	non	65	110	1	na
4000	160	non	65	0	1	na
4224	224	non	65	110	1	na
4384	160	non	65	0	1	na
4608	224	non	65	110	1	na
4768	160	non	65	0	1	na
4992	224	non	67	110	1	na
5152	160	non	67	0	1	na
5376	224	non	67	110	1	na
5536	160	non	67	0	1	na
5760	224	non	67	110	1	na
5920	160	non	67	0	1	na
6144	224	non	67	110	1	na
6304	160	non	67	0	1	na
6528	224	non	65	110	1	na
6688	160	non	65	0	1	na
6912	224	non	65	110	1	na
7072	160	non	65	0	1	na
7680	608	non	65	110	1	na
7840	160	non	65	0	1	na
8064	224	non	65	110	1	na
8224	160	non	65	0	1	na
8448	224	non	65	110	1	na
8608	160	non	65	0	1	na
17088	8480	non	62	110	1	na
17182	94	non	62	0	1	na
17184	2	non	63	110	1	na
17278	94	non	63	0	1	na
17280	2	non	65	110	1	na
17440	160	non	65	0	1	na
17472	32	non	65	110	1	na
17566	94	non	65	0	1	na
17568	2	non	63	110	1	na
17662	94	non	63	0	1	na
17664	2	non	62	110	1	na
17824	160	non	62	0	1	na
17856	32	non	65	110	1	na
18192	336	non	65	0	1	na
18240	48	non	65	110	1	na
18400	160	non	65	0	1	na
18432	32	non	65	110	1	na
18592	160	non	65	0	1	na
18624	32	non	65	110	1	na
18784	160	non	65	0	1	na
18816	32	non	67	110	1	na
18976	160	non	67	0	1	na
19008	32	non	69	110	1	na
19168	160	non	69	0	1	na
19200	32	non	70	110	1	na
19360	160	non	70	0	1	na
19392	32	non	70	110	1	na
19728	336	non	70	0	1	na
19776	48	non	67	110	1	na
20112	336	non	67	0	1	na
20160	48	non	65	110	1	na
20496	336	non	65	0	1	na
20544	48	non	63	110	1	na
20880	336	non	63	0	1	na
20928	48	non	65	110	1	na
21022	94	non	65	0	1	na
21024	2	non	67	110	1	na
21118	94	non	67	0	1	na
21120	2	non	69	110	1	na
21214	94	non	69	0	1	na
21216	2	non	70	110	1	na
21310	94	non	70	0	1	na
21312	2	non	70	110	1	na
21472	160	non	70	0	1	na
21504	32	non	65	110	1	na
21664	160	non	65	0	1	na
21696	32	non	67	110	1	na
21856	160	non	67	0	1	na
21888	32	non	67	110	1	na
22048	160	non	67	0	1	na
22080	32	non	74	110	1	na
22174	94	non	74	0	1	na
22176	2	non	72	110	1	na
22270	94	non	72	0	1	na
22272	2	non	70	110	1	na
22366	94	non	70	0	1	na
22368	2	non	67	110	1	na
22462	94	non	67	0	1	na
22464	2	non	72	110	1	na
22624	160	non	72	0	1	na
23424	800	non	77	110	1	na
23952	528	non	77	0	1	na
24000	48	non	79	110	1	na
24094	94	non	79	0	1	na
24096	2	non	81	110	1	na
24190	94	non	81	0	1	na
24192	2	non	82	110	1	na
24448	256	non	82	0	1	na
24480	32	non	77	110	1	na
24574	94	non	77	0	1	na
24576	2	non	77	110	1	na
24736	160	non	77	0	1	na
24960	224	non	67	110	1	na
25120	160	non	67	0	1	na
25152	32	non	77	110	1	na
25312	160	non	77	0	1	na
25344	32	non	75	110	1	na
25504	160	non	75	0	1	na
25536	32	non	67	110	1	na
25696	160	non	67	0	1	na
25728	32	non	70	110	1	na
26448	720	non	70	0	1	na
26496	48	non	69	110	1	na
27216	720	non	69	0	1	na
27264	48	non	70	110	1	na
27984	720	non	70	0	1	na
cumTime	delTime	event	pitch	vel	chan	value
cumTime	delTime	event	pitch	vel	chan	value
192	192	non	74	110	2	na
352	160	non	74	0	2	na
576	224	non	74	110	2	na
736	160	non	74	0	2	na
960	224	non	74	110	2	na
1120	160	non	74	0	2	na
1344	224	non	74	110	2	na
1504	160	non	74	0	2	na
1920	416	non	75	110	2	na
2080	160	non	75	0	2	na
2304	224	non	75	110	2	na
2464	160	non	75	0	2	na
2688	224	non	75	110	2	na
2848	160	non	75	0	2	na
3072	224	non	75	110	2	na
3232	160	non	75	0	2	na
3456	224	non	74	110	2	na
3616	160	non	74	0	2	na
3840	224	non	74	110	2	na
4000	160	non	74	0	2	na
4224	224	non	74	110	2	na
4384	160	non	74	0	2	na
4608	224	non	74	110	2	na
4768	160	non	74	0	2	na
4992	224	non	75	110	2	na
5152	160	non	75	0	2	na
5376	224	non	75	110	2	na
5536	160	non	75	0	2	na
5760	224	non	75	110	2	na
5920	160	non	75	0	2	na
6144	224	non	75	110	2	na
6304	160	non	75	0	2	na
6528	224	non	74	110	2	na
6688	160	non	74	0	2	na
6912	224	non	74	110	2	na
7072	160	non	74	0	2	na
7680	608	non	74	110	2	na
7840	160	non	74	0	2	na
8064	224	non	74	110	2	na
8224	160	non	74	0	2	na
8448	224	non	74	110	2	na
8608	160	non	74	0	2	na
10944	2336	non	77	110	2	na
11104	160	non	77	0	2	na
11136	32	non	77	110	2	na
11296	160	non	77	0	2	na
11328	32	non	77	110	2	na
11488	160	non	77	0	2	na
11520	32	non	77	110	2	na
11680	160	non	77	0	2	na
11712	32	non	74	110	2	na
11872	160	non	74	0	2	na
11904	32	non	74	110	2	na
12064	160	non	74	0	2	na
12096	32	non	74	110	2	na
12256	160	non	74	0	2	na
12288	32	non	74	110	2	na
12448	160	non	74	0	2	na
12480	32	non	75	110	2	na
12640	160	non	75	0	2	na
12672	32	non	75	110	2	na
12832	160	non	75	0	2	na
12864	32	non	75	110	2	na
13024	160	non	75	0	2	na
13056	32	non	75	110	2	na
13216	160	non	75	0	2	na
13248	32	non	72	110	2	na
13408	160	non	72	0	2	na
13440	32	non	72	110	2	na
13600	160	non	72	0	2	na
13632	32	non	72	110	2	na
13792	160	non	72	0	2	na
13824	32	non	72	110	2	na
13984	160	non	72	0	2	na
14016	32	non	74	110	2	na
14176	160	non	74	0	2	na
14208	32	non	74	110	2	na
14368	160	non	74	0	2	na
14400	32	non	74	110	2	na
14560	160	non	74	0	2	na
14592	32	non	74	110	2	na
14752	160	non	74	0	2	na
14784	32	non	72	110	2	na
14944	160	non	72	0	2	na
14976	32	non	72	110	2	na
15136	160	non	72	0	2	na
15168	32	non	72	110	2	na
15328	160	non	72	0	2	na
15360	32	non	72	110	2	na
15520	160	non	72	0	2	na
15552	32	non	70	110	2	na
15694	142	non	70	0	2	na
15696	2	non	75	110	2	na
15814	118	non	75	0	2	na
15816	2	non	79	110	2	na
15934	118	non	79	0	2	na
15936	2	non	75	110	2	na
16078	142	non	75	0	2	na
16080	2	non	70	110	2	na
16198	118	non	70	0	2	na
16200	2	non	75	110	2	na
16318	118	non	75	0	2	na
16320	2	non	77	110	2	na
16480	160	non	77	0	2	na
18240	1760	non	79	110	2	na
18334	94	non	79	0	2	na
18336	2	non	77	110	2	na
18430	94	non	77	0	2	na
18432	2	non	77	110	2	na
18592	160	non	77	0	2	na
18624	32	non	75	110	2	na
18718	94	non	75	0	2	na
18720	2	non	77	110	2	na
18814	94	non	77	0	2	na
18816	2	non	75	110	2	na
18976	160	non	75	0	2	na
19008	32	non	74	110	2	na
19168	160	non	74	0	2	na
19200	32	non	75	110	2	na
19360	160	non	75	0	2	na
19392	32	non	82	110	2	na
19552	160	non	82	0	2	na
19584	32	non	81	110	2	na
19678	94	non	81	0	2	na
19680	2	non	79	110	2	na
19774	94	non	79	0	2	na
19776	2	non	77	110	2	na
19870	94	non	77	0	2	na
19872	2	non	75	110	2	na
19966	94	non	75	0	2	na
19968	2	non	77	110	2	na
20062	94	non	77	0	2	na
20064	2	non	79	110	2	na
20158	94	non	79	0	2	na
20160	2	non	79	110	2	na
20320	160	non	79	0	2	na
20352	32	non	77	110	2	na
20512	160	non	77	0	2	na
20736	224	non	79	110	2	na
20830	94	non	79	0	2	na
20832	2	non	81	110	2	na
20926	94	non	81	0	2	na
20928	2	non	81	110	2	na
21088	160	non	81	0	2	na
21120	32	non	79	110	2	na
21280	160	non	79	0	2	na
21312	32	non	77	110	2	na
21472	160	non	77	0	2	na
21504	32	non	79	110	2	na
21664	160	non	79	0	2	na
21696	32	non	77	110	2	na
21856	160	non	77	0	2	na
21888	32	non	75	110	2	na
22048	160	non	75	0	2	na
22080	32	non	75	110	2	na
22240	160	non	75	0	2	na
22272	32	non	77	110	2	na
22432	160	non	77	0	2	na
22464	32	non	77	110	2	na
22624	160	non	77	0	2	na
23424	800	non	74	110	2	na
23518	94	non	74	0	2	na
23520	2	non	72	110	2	na
23614	94	non	72	0	2	na
23616	2	non	74	110	2	na
23710	94	non	74	0	2	na
23712	2	non	75	110	2	na
23806	94	non	75	0	2	na
23808	2	non	77	110	2	na
23968	160	non	77	0	2	na
24000	32	non	84	110	2	na
24160	160	non	84	0	2	na
24192	32	non	86	110	2	na
24352	160	non	86	0	2	na
24384	32	non	84	110	2	na
24544	160	non	84	0	2	na
24576	32	non	82	110	2	na
24736	160	non	82	0	2	na
24768	32	non	77	110	2	na
24928	160	non	77	0	2	na
24960	32	non	77	110	2	na
25120	160	non	77	0	2	na
25152	32	non	79	110	2	na
25312	160	non	79	0	2	na
25344	32	non	79	110	2	na
25504	160	non	79	0	2	na
25536	32	non	82	110	2	na
25696	160	non	82	0	2	na
25728	32	non	79	110	2	na
26064	336	non	79	0	2	na
26112	48	non	77	110	2	na
26448	336	non	77	0	2	na
26496	48	non	77	110	2	na
26832	336	non	77	0	2	na
26880	48	non	75	110	2	na
27216	336	non	75	0	2	na
27264	48	non	74	110	2	na
27984	720	non	74	0	2	na
cumTime	delTime	event	pitch	vel	chan	value
cumTime	delTime	event	pitch	vel	chan	value
0	0	non	70	110	3	na
160	160	non	70	0	3	na
384	224	non	70	110	3	na
544	160	non	70	0	3	na
768	224	non	70	110	3	na
928	160	non	70	0	3	na
1152	224	non	70	110	3	na
1312	160	non	70	0	3	na
1728	416	non	70	110	3	na
1888	160	non	70	0	3	na
2112	224	non	70	110	3	na
2272	160	non	70	0	3	na
2496	224	non	70	110	3	na
2656	160	non	70	0	3	na
2880	224	non	70	110	3	na
3040	160	non	70	0	3	na
3264	224	non	70	110	3	na
3424	160	non	70	0	3	na
3648	224	non	70	110	3	na
3808	160	non	70	0	3	na
4032	224	non	70	110	3	na
4192	160	non	70	0	3	na
4416	224	non	70	110	3	na
4576	160	non	70	0	3	na
4800	224	non	72	110	3	na
4960	160	non	72	0	3	na
5184	224	non	72	110	3	na
5344	160	non	72	0	3	na
5568	224	non	72	110	3	na
5728	160	non	72	0	3	na
5952	224	non	72	110	3	na
6112	160	non	72	0	3	na
6336	224	non	70	110	3	na
6496	160	non	70	0	3	na
6720	224	non	70	110	3	na
6880	160	non	70	0	3	na
7488	608	non	70	110	3	na
7648	160	non	70	0	3	na
7872	224	non	70	110	3	na
8032	160	non	70	0	3	na
8256	224	non	70	110	3	na
8416	160	non	70	0	3	na
10944	2528	non	70	110	3	na
11280	336	non	70	0	3	na
11328	48	non	69	110	3	na
11664	336	non	69	0	3	na
11712	48	non	67	110	3	na
12048	336	non	67	0	3	na
12096	48	non	67	110	3	na
12432	336	non	67	0	3	na
12480	48	non	63	110	3	na
12816	336	non	63	0	3	na
12864	48	non	63	110	3	na
13200	336	non	63	0	3	na
13248	48	non	65	110	3	na
13584	336	non	65	0	3	na
13632	48	non	69	110	3	na
13968	336	non	69	0	3	na
14016	48	non	70	110	3	na
14352	336	non	70	0	3	na
14400	48	non	70	110	3	na
14736	336	non	70	0	3	na
14784	48	non	69	110	3	na
15120	336	non	69	0	3	na
15168	48	non	65	110	3	na
15504	336	non	65	0	3	na
15552	48	non	63	110	3	na
15888	336	non	63	0	3	na
15936	48	non	63	110	3	na
16272	336	non	63	0	3	na
16320	48	non	63	110	3	na
16656	336	non	63	0	3	na
16704	48	non	65	110	3	na
17040	336	non	65	0	3	na
17088	48	non	65	110	3	na
17808	720	non	65	0	3	na
17856	48	non	72	110	3	na
18192	336	non	72	0	3	na
18240	48	non	74	110	3	na
18576	336	non	74	0	3	na
18624	48	non	70	110	3	na
19344	720	non	70	0	3	na
19392	48	non	67	110	3	na
19728	336	non	67	0	3	na
19776	48	non	70	110	3	na
20112	336	non	70	0	3	na
20160	48	non	74	110	3	na
20254	94	non	74	0	3	na
20256	2	non	72	110	3	na
20350	94	non	72	0	3	na
20352	2	non	70	110	3	na
20446	94	non	70	0	3	na
20448	2	non	69	110	3	na
20542	94	non	69	0	3	na
20544	2	non	67	110	3	na
20704	160	non	67	0	3	na
20736	32	non	70	110	3	na
20896	160	non	70	0	3	na
20928	32	non	77	110	3	na
21022	94	non	77	0	3	na
21024	2	non	75	110	3	na
21118	94	non	75	0	3	na
21120	2	non	75	110	3	na
21280	160	non	75	0	3	na
21504	224	non	65	110	3	na
21664	160	non	65	0	3	na
21696	32	non	70	110	3	na
21856	160	non	70	0	3	na
21888	32	non	70	110	3	na
22048	160	non	70	0	3	na
22080	32	non	67	110	3	na
22240	160	non	67	0	3	na
22272	32	non	70	110	3	na
22432	160	non	70	0	3	na
22464	32	non	69	110	3	na
22624	160	non	69	0	3	na
23424	800	non	70	110	3	na
23760	336	non	70	0	3	na
23808	48	non	72	110	3	na
23968	160	non	72	0	3	na
24000	32	non	70	110	3	na
24094	94	non	70	0	3	na
24096	2	non	69	110	3	na
24190	94	non	69	0	3	na
24192	2	non	70	110	3	na
24286	94	non	70	0	3	na
24288	2	non	72	110	3	na
24382	94	non	72	0	3	na
24384	2	non	74	110	3	na
24720	336	non	74	0	3	na
24768	48	non	70	110	3	na
24862	94	non	70	0	3	na
24864	2	non	69	110	3	na
24958	94	non	69	0	3	na
24960	2	non	70	110	3	na
25296	336	non	70	0	3	na
25344	48	non	72	110	3	na
25680	336	non	72	0	3	na
25728	48	non	72	110	3	na
25888	160	non	72	0	3	na
25920	32	non	70	110	3	na
26080	160	non	70	0	3	na
26112	32	non	69	110	3	na
26272	160	non	69	0	3	na
26304	32	non	70	110	3	na
26464	160	non	70	0	3	na
26496	32	non	72	110	3	na
26832	336	non	72	0	3	na
26880	48	non	65	110	3	na
27216	336	non	65	0	3	na
27264	48	non	65	110	3	na
27984	720	non	65	0	3	na
cumTime	delTime	event	pitch	vel	chan	value
