cumTime	delTime	event	pitch	vel	chan	value
cumTime	delTime	event	pitch	vel	chan	value
1632	1632	non	52	110	1	na
1726	94	non	52	0	1	na
1728	2	non	57	110	1	na
1822	94	non	57	0	1	na
1824	2	non	59	110	1	na
1918	94	non	59	0	1	na
1920	2	non	61	110	1	na
2062	142	non	61	0	1	na
2064	2	non	62	110	1	na
2110	46	non	62	0	1	na
2112	2	non	61	110	1	na
2272	160	non	61	0	1	na
2400	128	non	57	110	1	na
2494	94	non	57	0	1	na
2496	2	non	57	110	1	na
2590	94	non	57	0	1	na
2592	2	non	52	110	1	na
2686	94	non	52	0	1	na
2688	2	non	59	110	1	na
2782	94	non	59	0	1	na
2784	2	non	57	110	1	na
2878	94	non	57	0	1	na
2880	2	non	56	110	1	na
2974	94	non	56	0	1	na
2976	2	non	57	110	1	na
3070	94	non	57	0	1	na
3216	146	non	52	110	1	na
3262	46	non	52	0	1	na
3264	2	non	57	110	1	na
3358	94	non	57	0	1	na
3360	2	non	59	110	1	na
3454	94	non	59	0	1	na
3456	2	non	61	110	1	na
3550	94	non	61	0	1	na
3552	2	non	62	110	1	na
3646	94	non	62	0	1	na
3648	2	non	61	110	1	na
3742	94	non	61	0	1	na
3744	2	non	59	110	1	na
3838	94	non	59	0	1	na
3840	2	non	57	110	1	na
4000	160	non	57	0	1	na
4032	32	non	59	110	1	na
4126	94	non	59	0	1	na
4128	2	non	56	110	1	na
4384	256	non	56	0	1	na
4704	320	non	52	110	1	na
4798	94	non	52	0	1	na
4800	2	non	57	110	1	na
4894	94	non	57	0	1	na
4896	2	non	59	110	1	na
4990	94	non	59	0	1	na
4992	2	non	61	110	1	na
5134	142	non	61	0	1	na
5136	2	non	62	110	1	na
5182	46	non	62	0	1	na
5184	2	non	61	110	1	na
5344	160	non	61	0	1	na
5472	128	non	57	110	1	na
5566	94	non	57	0	1	na
5568	2	non	57	110	1	na
5662	94	non	57	0	1	na
5664	2	non	52	110	1	na
5758	94	non	52	0	1	na
5760	2	non	59	110	1	na
5854	94	non	59	0	1	na
5856	2	non	57	110	1	na
5950	94	non	57	0	1	na
5952	2	non	56	110	1	na
6046	94	non	56	0	1	na
6048	2	non	57	110	1	na
6142	94	non	57	0	1	na
6240	98	non	52	110	1	na
6334	94	non	52	0	1	na
6336	2	non	57	110	1	na
6430	94	non	57	0	1	na
6432	2	non	59	110	1	na
6526	94	non	59	0	1	na
6528	2	non	61	110	1	na
6622	94	non	61	0	1	na
6624	2	non	62	110	1	na
6718	94	non	62	0	1	na
6720	2	non	61	110	1	na
6814	94	non	61	0	1	na
6816	2	non	59	110	1	na
6910	94	non	59	0	1	na
6912	2	non	57	110	1	na
7072	160	non	57	0	1	na
7104	32	non	66	110	1	na
7264	160	non	66	0	1	na
7296	32	non	65	110	1	na
7390	94	non	65	0	1	na
7392	2	non	61	110	1	na
7486	94	non	61	0	1	na
7488	2	non	59	110	1	na
7582	94	non	59	0	1	na
7584	2	non	58	110	1	na
7840	256	non	58	0	1	na
8064	224	non	58	110	1	na
8158	94	non	58	0	1	na
8160	2	non	59	110	1	na
8254	94	non	59	0	1	na
8256	2	non	61	110	1	na
8350	94	non	61	0	1	na
8352	2	non	61	110	1	na
8542	190	non	61	0	1	na
8544	2	non	70	110	1	na
8734	190	non	70	0	1	na
8736	2	non	68	110	1	na
8926	190	non	68	0	1	na
8928	2	non	66	110	1	na
9376	448	non	66	0	1	na
9600	224	non	59	110	1	na
9694	94	non	59	0	1	na
9696	2	non	58	110	1	na
9790	94	non	58	0	1	na
9792	2	non	54	110	1	na
9886	94	non	54	0	1	na
9888	2	non	59	110	1	na
10078	190	non	59	0	1	na
10080	2	non	58	110	1	na
10174	94	non	58	0	1	na
10176	2	non	54	110	1	na
10704	528	non	54	0	1	na
11136	432	non	58	110	1	na
11230	94	non	58	0	1	na
11232	2	non	59	110	1	na
11326	94	non	59	0	1	na
11328	2	non	61	110	1	na
11422	94	non	61	0	1	na
11424	2	non	61	110	1	na
11614	190	non	61	0	1	na
11616	2	non	70	110	1	na
11806	190	non	70	0	1	na
11808	2	non	68	110	1	na
11998	190	non	68	0	1	na
12000	2	non	66	110	1	na
12190	190	non	66	0	1	na
12192	2	non	66	110	1	na
12382	190	non	66	0	1	na
12384	2	non	66	110	1	na
12478	94	non	66	0	1	na
12480	2	non	66	110	1	na
12574	94	non	66	0	1	na
12576	2	non	64	110	1	na
12670	94	non	64	0	1	na
12672	2	non	64	110	1	na
12832	160	non	64	0	1	na
12864	32	non	62	110	1	na
12958	94	non	62	0	1	na
12960	2	non	61	110	1	na
13150	190	non	61	0	1	na
13152	2	non	59	110	1	na
13198	46	non	59	0	1	na
13200	2	non	57	110	1	na
13408	208	non	57	0	1	na
14688	1280	non	52	110	1	na
14782	94	non	52	0	1	na
14784	2	non	57	110	1	na
14878	94	non	57	0	1	na
14880	2	non	59	110	1	na
14974	94	non	59	0	1	na
14976	2	non	61	110	1	na
15070	94	non	61	0	1	na
15072	2	non	62	110	1	na
15166	94	non	62	0	1	na
15168	2	non	61	110	1	na
15328	160	non	61	0	1	na
15504	176	non	57	110	1	na
15550	46	non	57	0	1	na
15552	2	non	57	110	1	na
15646	94	non	57	0	1	na
15648	2	non	52	110	1	na
15742	94	non	52	0	1	na
15744	2	non	59	110	1	na
15838	94	non	59	0	1	na
15840	2	non	57	110	1	na
15934	94	non	57	0	1	na
15936	2	non	56	110	1	na
16030	94	non	56	0	1	na
16032	2	non	57	110	1	na
16126	94	non	57	0	1	na
16224	98	non	52	110	1	na
16318	94	non	52	0	1	na
16320	2	non	57	110	1	na
16414	94	non	57	0	1	na
16416	2	non	59	110	1	na
16510	94	non	59	0	1	na
16512	2	non	61	110	1	na
16606	94	non	61	0	1	na
16608	2	non	62	110	1	na
16702	94	non	62	0	1	na
16704	2	non	61	110	1	na
16798	94	non	61	0	1	na
16800	2	non	59	110	1	na
16894	94	non	59	0	1	na
16896	2	non	57	110	1	na
17056	160	non	57	0	1	na
17088	32	non	59	110	1	na
17182	94	non	59	0	1	na
17184	2	non	56	110	1	na
17440	256	non	56	0	1	na
17760	320	non	52	110	1	na
17854	94	non	52	0	1	na
17856	2	non	57	110	1	na
17950	94	non	57	0	1	na
17952	2	non	59	110	1	na
18046	94	non	59	0	1	na
18048	2	non	61	110	1	na
18190	142	non	61	0	1	na
18192	2	non	62	110	1	na
18238	46	non	62	0	1	na
18240	2	non	61	110	1	na
18400	160	non	61	0	1	na
18528	128	non	57	110	1	na
18622	94	non	57	0	1	na
18624	2	non	57	110	1	na
18718	94	non	57	0	1	na
18720	2	non	52	110	1	na
18814	94	non	52	0	1	na
18816	2	non	59	110	1	na
18958	142	non	59	0	1	na
18960	2	non	57	110	1	na
19006	46	non	57	0	1	na
19008	2	non	56	110	1	na
19102	94	non	56	0	1	na
19104	2	non	57	110	1	na
19198	94	non	57	0	1	na
19296	98	non	52	110	1	na
19390	94	non	52	0	1	na
19392	2	non	57	110	1	na
19486	94	non	57	0	1	na
19488	2	non	59	110	1	na
19582	94	non	59	0	1	na
19584	2	non	61	110	1	na
19726	142	non	61	0	1	na
19728	2	non	62	110	1	na
19774	46	non	62	0	1	na
19776	2	non	61	110	1	na
19870	94	non	61	0	1	na
19872	2	non	59	110	1	na
19966	94	non	59	0	1	na
19968	2	non	57	110	1	na
20128	160	non	57	0	1	na
20160	32	non	66	110	1	na
20320	160	non	66	0	1	na
20352	32	non	65	110	1	na
20446	94	non	65	0	1	na
20448	2	non	61	110	1	na
20542	94	non	61	0	1	na
20544	2	non	59	110	1	na
20638	94	non	59	0	1	na
20640	2	non	58	110	1	na
20896	256	non	58	0	1	na
21120	224	non	58	110	1	na
21214	94	non	58	0	1	na
21216	2	non	59	110	1	na
21310	94	non	59	0	1	na
21312	2	non	61	110	1	na
21406	94	non	61	0	1	na
21408	2	non	61	110	1	na
21598	190	non	61	0	1	na
21600	2	non	70	110	1	na
21790	190	non	70	0	1	na
21792	2	non	68	110	1	na
21982	190	non	68	0	1	na
21984	2	non	66	110	1	na
22432	448	non	66	0	1	na
22656	224	non	59	110	1	na
22656	0	non	63	110	1	na
22750	94	non	59	0	1	na
22750	0	non	63	0	1	na
22752	2	non	58	110	1	na
22752	0	non	61	110	1	na
22846	94	non	58	0	1	na
22846	0	non	61	0	1	na
22848	2	non	54	110	1	na
22848	0	non	58	110	1	na
22942	94	non	54	0	1	na
22942	0	non	58	0	1	na
22944	2	non	59	110	1	na
22944	0	non	63	110	1	na
23038	94	non	59	0	1	na
23038	0	non	63	0	1	na
23040	2	non	58	110	1	na
23040	0	non	61	110	1	na
23134	94	non	58	0	1	na
23134	0	non	61	0	1	na
23136	2	non	54	110	1	na
23136	0	non	58	110	1	na
23760	624	non	54	0	1	na
23760	0	non	58	0	1	na
24192	432	non	58	110	1	na
24286	94	non	58	0	1	na
24288	2	non	59	110	1	na
24382	94	non	59	0	1	na
24384	2	non	61	110	1	na
24478	94	non	61	0	1	na
24480	2	non	61	110	1	na
24670	190	non	61	0	1	na
24672	2	non	70	110	1	na
24862	190	non	70	0	1	na
24864	2	non	68	110	1	na
25054	190	non	68	0	1	na
25056	2	non	66	110	1	na
25246	190	non	66	0	1	na
25248	2	non	66	110	1	na
25438	190	non	66	0	1	na
25440	2	non	66	110	1	na
25534	94	non	66	0	1	na
25536	2	non	66	110	1	na
25630	94	non	66	0	1	na
25632	2	non	64	110	1	na
25726	94	non	64	0	1	na
25728	2	non	64	110	1	na
25888	160	non	64	0	1	na
25920	32	non	62	110	1	na
26014	94	non	62	0	1	na
26016	2	non	61	110	1	na
26206	190	non	61	0	1	na
26208	2	non	59	110	1	na
26254	46	non	59	0	1	na
26256	2	non	57	110	1	na
26464	208	non	57	0	1	na
27744	1280	non	52	110	1	na
27838	94	non	52	0	1	na
27840	2	non	57	110	1	na
27934	94	non	57	0	1	na
27936	2	non	59	110	1	na
28030	94	non	59	0	1	na
28032	2	non	61	110	1	na
28126	94	non	61	0	1	na
28128	2	non	62	110	1	na
28222	94	non	62	0	1	na
28224	2	non	61	110	1	na
28384	160	non	61	0	1	na
28416	32	non	57	110	1	na
28576	160	non	57	0	1	na
28608	32	non	57	110	1	na
28702	94	non	57	0	1	na
28704	2	non	52	110	1	na
28798	94	non	52	0	1	na
28800	2	non	59	110	1	na
28894	94	non	59	0	1	na
28896	2	non	57	110	1	na
28990	94	non	57	0	1	na
28992	2	non	56	110	1	na
29086	94	non	56	0	1	na
29088	2	non	57	110	1	na
29182	94	non	57	0	1	na
29280	98	non	52	110	1	na
29374	94	non	52	0	1	na
29376	2	non	57	110	1	na
29470	94	non	57	0	1	na
29472	2	non	59	110	1	na
29566	94	non	59	0	1	na
29568	2	non	61	110	1	na
29662	94	non	61	0	1	na
29664	2	non	62	110	1	na
29758	94	non	62	0	1	na
29760	2	non	61	110	1	na
29854	94	non	61	0	1	na
29856	2	non	59	110	1	na
29950	94	non	59	0	1	na
29952	2	non	57	110	1	na
30112	160	non	57	0	1	na
30144	32	non	59	110	1	na
30238	94	non	59	0	1	na
30240	2	non	56	110	1	na
30496	256	non	56	0	1	na
30816	320	non	52	110	1	na
30910	94	non	52	0	1	na
30912	2	non	57	110	1	na
31006	94	non	57	0	1	na
31008	2	non	59	110	1	na
31102	94	non	59	0	1	na
31104	2	non	61	110	1	na
31246	142	non	61	0	1	na
31248	2	non	62	110	1	na
31294	46	non	62	0	1	na
31296	2	non	61	110	1	na
31456	160	non	61	0	1	na
31584	128	non	57	110	1	na
31678	94	non	57	0	1	na
31680	2	non	57	110	1	na
31774	94	non	57	0	1	na
31776	2	non	52	110	1	na
31870	94	non	52	0	1	na
31872	2	non	59	110	1	na
32014	142	non	59	0	1	na
32016	2	non	57	110	1	na
32062	46	non	57	0	1	na
32064	2	non	56	110	1	na
32158	94	non	56	0	1	na
32160	2	non	57	110	1	na
32254	94	non	57	0	1	na
32352	98	non	52	110	1	na
32446	94	non	52	0	1	na
32448	2	non	57	110	1	na
32542	94	non	57	0	1	na
32544	2	non	59	110	1	na
32638	94	non	59	0	1	na
32640	2	non	61	110	1	na
32734	94	non	61	0	1	na
32736	2	non	62	110	1	na
32830	94	non	62	0	1	na
32832	2	non	61	110	1	na
32926	94	non	61	0	1	na
32928	2	non	59	110	1	na
33022	94	non	59	0	1	na
33024	2	non	57	110	1	na
33184	160	non	57	0	1	na
33216	32	non	66	110	1	na
33376	160	non	66	0	1	na
33408	32	non	65	110	1	na
33502	94	non	65	0	1	na
33504	2	non	61	110	1	na
33598	94	non	61	0	1	na
33600	2	non	59	110	1	na
33694	94	non	59	0	1	na
33696	2	non	58	110	1	na
33952	256	non	58	0	1	na
34176	224	non	58	110	1	na
34270	94	non	58	0	1	na
34272	2	non	59	110	1	na
34366	94	non	59	0	1	na
34368	2	non	61	110	1	na
34462	94	non	61	0	1	na
34464	2	non	61	110	1	na
34654	190	non	61	0	1	na
34656	2	non	70	110	1	na
34846	190	non	70	0	1	na
34848	2	non	68	110	1	na
35038	190	non	68	0	1	na
35040	2	non	66	110	1	na
35488	448	non	66	0	1	na
35712	224	non	59	110	1	na
35806	94	non	59	0	1	na
35808	2	non	58	110	1	na
35902	94	non	58	0	1	na
35904	2	non	54	110	1	na
35998	94	non	54	0	1	na
36000	2	non	59	110	1	na
36094	94	non	59	0	1	na
36096	2	non	58	110	1	na
36190	94	non	58	0	1	na
36192	2	non	54	110	1	na
36816	624	non	54	0	1	na
37248	432	non	58	110	1	na
37342	94	non	58	0	1	na
37344	2	non	59	110	1	na
37438	94	non	59	0	1	na
37440	2	non	61	110	1	na
37534	94	non	61	0	1	na
37536	2	non	61	110	1	na
37726	190	non	61	0	1	na
37728	2	non	70	110	1	na
37918	190	non	70	0	1	na
37920	2	non	68	110	1	na
38110	190	non	68	0	1	na
38112	2	non	66	110	1	na
38302	190	non	66	0	1	na
38304	2	non	66	110	1	na
38494	190	non	66	0	1	na
38496	2	non	66	110	1	na
38590	94	non	66	0	1	na
38592	2	non	66	110	1	na
38686	94	non	66	0	1	na
38688	2	non	64	110	1	na
38782	94	non	64	0	1	na
38784	2	non	64	110	1	na
38944	160	non	64	0	1	na
38976	32	non	62	110	1	na
39070	94	non	62	0	1	na
39072	2	non	61	110	1	na
39262	190	non	61	0	1	na
39264	2	non	59	110	1	na
39310	46	non	59	0	1	na
39312	2	non	57	110	1	na
39520	208	non	57	0	1	na
39840	320	non	66	110	1	na
40030	190	non	66	0	1	na
40032	2	non	66	110	1	na
40126	94	non	66	0	1	na
40128	2	non	66	110	1	na
40222	94	non	66	0	1	na
40224	2	non	64	110	1	na
40318	94	non	64	0	1	na
40320	2	non	64	110	1	na
40480	160	non	64	0	1	na
40512	32	non	62	110	1	na
40606	94	non	62	0	1	na
40608	2	non	61	110	1	na
40798	190	non	61	0	1	na
40800	2	non	59	110	1	na
40846	46	non	59	0	1	na
40848	2	non	57	110	1	na
41056	208	non	57	0	1	na
41376	320	non	66	110	1	na
41566	190	non	66	0	1	na
41568	2	non	66	110	1	na
41662	94	non	66	0	1	na
41664	2	non	66	110	1	na
41758	94	non	66	0	1	na
41760	2	non	64	110	1	na
41854	94	non	64	0	1	na
41856	2	non	64	110	1	na
42016	160	non	64	0	1	na
42048	32	non	62	110	1	na
42142	94	non	62	0	1	na
42144	2	non	61	110	1	na
42576	432	non	61	0	1	na
cumTime	delTime	event	pitch	vel	chan	value
cumTime	delTime	event	pitch	vel	chan	value
96	96	non	52	110	0	na
190	94	non	52	0	0	na
288	98	non	52	110	0	na
382	94	non	52	0	0	na
1248	866	non	53	110	0	na
1342	94	non	53	0	0	na
1536	194	non	57	110	0	na
1630	94	non	57	0	0	na
1632	2	non	52	110	0	na
1632	0	non	64	110	0	na
1726	94	non	52	0	0	na
1726	0	non	64	0	0	na
1728	2	non	57	110	0	na
1822	94	non	57	0	0	na
1824	2	non	52	110	0	na
1824	0	non	64	110	0	na
1918	94	non	52	0	0	na
1918	0	non	64	0	0	na
1920	2	non	57	110	0	na
2014	94	non	57	0	0	na
2016	2	non	63	110	0	na
2110	94	non	63	0	0	na
2304	194	non	57	110	0	na
2398	94	non	57	0	0	na
2400	2	non	62	110	0	na
2494	94	non	62	0	0	na
2496	2	non	57	110	0	na
2590	94	non	57	0	0	na
2592	2	non	62	110	0	na
2686	94	non	62	0	0	na
2688	2	non	57	110	0	na
2782	94	non	57	0	0	na
2784	2	non	53	110	0	na
2784	0	non	65	110	0	na
2878	94	non	53	0	0	na
2878	0	non	65	0	0	na
3072	194	non	57	110	0	na
3166	94	non	57	0	0	na
3168	2	non	52	110	0	na
3168	0	non	64	110	0	na
3262	94	non	52	0	0	na
3262	0	non	64	0	0	na
3264	2	non	57	110	0	na
3358	94	non	57	0	0	na
3360	2	non	52	110	0	na
3360	0	non	64	110	0	na
3454	94	non	52	0	0	na
3454	0	non	64	0	0	na
3456	2	non	57	110	0	na
3550	94	non	57	0	0	na
3552	2	non	63	110	0	na
3646	94	non	63	0	0	na
3840	194	non	57	110	0	na
3934	94	non	57	0	0	na
3936	2	non	62	110	0	na
4030	94	non	62	0	0	na
4032	2	non	57	110	0	na
4126	94	non	57	0	0	na
4128	2	non	62	110	0	na
4222	94	non	62	0	0	na
4224	2	non	52	110	0	na
4224	0	non	57	110	0	na
4270	46	non	52	0	0	na
4270	0	non	57	0	0	na
4272	2	non	52	110	0	na
4318	46	non	52	0	0	na
4320	2	non	52	110	0	na
4366	46	non	52	0	0	na
4368	2	non	52	110	0	na
4414	46	non	52	0	0	na
4416	2	non	52	110	0	na
4462	46	non	52	0	0	na
4464	2	non	54	110	0	na
4510	46	non	54	0	0	na
4512	2	non	59	110	0	na
4606	94	non	59	0	0	na
4608	2	non	57	110	0	na
4702	94	non	57	0	0	na
4704	2	non	64	110	0	na
4798	94	non	64	0	0	na
4800	2	non	57	110	0	na
4894	94	non	57	0	0	na
4896	2	non	64	110	0	na
4990	94	non	64	0	0	na
4992	2	non	57	110	0	na
5086	94	non	57	0	0	na
5088	2	non	63	110	0	na
5182	94	non	63	0	0	na
5376	194	non	57	110	0	na
5470	94	non	57	0	0	na
5472	2	non	62	110	0	na
5566	94	non	62	0	0	na
5568	2	non	57	110	0	na
5662	94	non	57	0	0	na
5664	2	non	62	110	0	na
5758	94	non	62	0	0	na
5760	2	non	57	110	0	na
5902	142	non	57	0	0	na
5904	2	non	69	110	0	na
5950	46	non	69	0	0	na
6024	74	non	65	110	0	na
6142	118	non	65	0	0	na
6144	2	non	57	110	0	na
6238	94	non	57	0	0	na
6240	2	non	64	110	0	na
6334	94	non	64	0	0	na
6336	2	non	57	110	0	na
6430	94	non	57	0	0	na
6432	2	non	64	110	0	na
6526	94	non	64	0	0	na
6528	2	non	57	110	0	na
6622	94	non	57	0	0	na
6624	2	non	63	110	0	na
6718	94	non	63	0	0	na
6912	194	non	57	110	0	na
6912	0	non	62	110	0	na
7072	160	non	57	0	0	na
7072	0	non	62	0	0	na
7104	32	non	57	110	0	na
7104	0	non	62	110	0	na
7264	160	non	57	0	0	na
7264	0	non	62	0	0	na
7296	32	non	56	110	0	na
7296	0	non	65	110	0	na
7456	160	non	56	0	0	na
7456	0	non	65	0	0	na
7488	32	non	56	110	0	na
7488	0	non	65	110	0	na
7648	160	non	56	0	0	na
7648	0	non	65	0	0	na
7680	32	non	58	110	0	na
7680	0	non	61	110	0	na
7680	0	non	66	110	0	na
7840	160	non	58	0	0	na
7840	0	non	61	0	0	na
7840	0	non	66	0	0	na
7872	32	non	58	110	0	na
7872	0	non	61	110	0	na
7872	0	non	66	110	0	na
8032	160	non	58	0	0	na
8032	0	non	61	0	0	na
8032	0	non	66	0	0	na
8064	32	non	59	110	0	na
8064	0	non	61	110	0	na
8064	0	non	66	110	0	na
8224	160	non	59	0	0	na
8224	0	non	61	0	0	na
8224	0	non	66	0	0	na
8256	32	non	59	110	0	na
8256	0	non	61	110	0	na
8256	0	non	66	110	0	na
8416	160	non	59	0	0	na
8416	0	non	61	0	0	na
8416	0	non	66	0	0	na
8448	32	non	58	110	0	na
8448	0	non	61	110	0	na
8448	0	non	66	110	0	na
8608	160	non	58	0	0	na
8608	0	non	61	0	0	na
8608	0	non	66	0	0	na
8640	32	non	58	110	0	na
8640	0	non	61	110	0	na
8640	0	non	66	110	0	na
8800	160	non	58	0	0	na
8800	0	non	61	0	0	na
8800	0	non	66	0	0	na
8832	32	non	59	110	0	na
8832	0	non	63	110	0	na
8832	0	non	66	110	0	na
8992	160	non	59	0	0	na
8992	0	non	63	0	0	na
8992	0	non	66	0	0	na
9024	32	non	59	110	0	na
9024	0	non	63	110	0	na
9024	0	non	66	110	0	na
9166	142	non	59	0	0	na
9166	0	non	63	0	0	na
9166	0	non	66	0	0	na
9168	2	non	54	110	0	na
9214	46	non	54	0	0	na
9216	2	non	58	110	0	na
9216	0	non	61	110	0	na
9216	0	non	66	110	0	na
9376	160	non	58	0	0	na
9376	0	non	61	0	0	na
9376	0	non	66	0	0	na
9408	32	non	58	110	0	na
9408	0	non	61	110	0	na
9408	0	non	66	110	0	na
9568	160	non	58	0	0	na
9568	0	non	61	0	0	na
9568	0	non	66	0	0	na
9600	32	non	59	110	0	na
9600	0	non	61	110	0	na
9600	0	non	66	110	0	na
9760	160	non	59	0	0	na
9760	0	non	61	0	0	na
9760	0	non	66	0	0	na
9792	32	non	59	110	0	na
9792	0	non	61	110	0	na
9792	0	non	66	110	0	na
9952	160	non	59	0	0	na
9952	0	non	61	0	0	na
9952	0	non	66	0	0	na
9984	32	non	58	110	0	na
9984	0	non	61	110	0	na
9984	0	non	66	110	0	na
10144	160	non	58	0	0	na
10144	0	non	61	0	0	na
10144	0	non	66	0	0	na
10176	32	non	58	110	0	na
10176	0	non	61	110	0	na
10176	0	non	66	110	0	na
10336	160	non	58	0	0	na
10336	0	non	61	0	0	na
10336	0	non	66	0	0	na
10368	32	non	59	110	0	na
10368	0	non	63	110	0	na
10368	0	non	66	110	0	na
10528	160	non	59	0	0	na
10528	0	non	63	0	0	na
10528	0	non	66	0	0	na
10560	32	non	59	110	0	na
10560	0	non	63	110	0	na
10560	0	non	66	110	0	na
10702	142	non	59	0	0	na
10702	0	non	63	0	0	na
10702	0	non	66	0	0	na
10704	2	non	54	110	0	na
10750	46	non	54	0	0	na
10752	2	non	58	110	0	na
10752	0	non	61	110	0	na
10752	0	non	66	110	0	na
10912	160	non	58	0	0	na
10912	0	non	61	0	0	na
10912	0	non	66	0	0	na
10944	32	non	58	110	0	na
10944	0	non	61	110	0	na
10944	0	non	66	110	0	na
11104	160	non	58	0	0	na
11104	0	non	61	0	0	na
11104	0	non	66	0	0	na
11136	32	non	59	110	0	na
11136	0	non	61	110	0	na
11136	0	non	66	110	0	na
11296	160	non	59	0	0	na
11296	0	non	61	0	0	na
11296	0	non	66	0	0	na
11328	32	non	59	110	0	na
11328	0	non	61	110	0	na
11328	0	non	66	110	0	na
11488	160	non	59	0	0	na
11488	0	non	61	0	0	na
11488	0	non	66	0	0	na
11520	32	non	58	110	0	na
11520	0	non	61	110	0	na
11520	0	non	66	110	0	na
11680	160	non	58	0	0	na
11680	0	non	61	0	0	na
11680	0	non	66	0	0	na
11712	32	non	58	110	0	na
11712	0	non	61	110	0	na
11712	0	non	66	110	0	na
11872	160	non	58	0	0	na
11872	0	non	61	0	0	na
11872	0	non	66	0	0	na
11904	32	non	59	110	0	na
11904	0	non	63	110	0	na
11904	0	non	66	110	0	na
12064	160	non	59	0	0	na
12064	0	non	63	0	0	na
12064	0	non	66	0	0	na
12096	32	non	59	110	0	na
12096	0	non	63	110	0	na
12096	0	non	66	110	0	na
12256	160	non	59	0	0	na
12256	0	non	63	0	0	na
12256	0	non	66	0	0	na
12288	32	non	59	110	0	na
12288	0	non	62	110	0	na
12288	0	non	66	110	0	na
12624	336	non	59	0	0	na
12624	0	non	62	0	0	na
12624	0	non	66	0	0	na
12672	48	non	59	110	0	na
12672	0	non	64	110	0	na
12832	160	non	59	0	0	na
12832	0	non	64	0	0	na
12864	32	non	59	110	0	na
12864	0	non	62	110	0	na
13024	160	non	59	0	0	na
13024	0	non	62	0	0	na
13152	128	non	52	110	0	na
13246	94	non	52	0	0	na
13344	98	non	52	110	0	na
13438	94	non	52	0	0	na
13440	2	non	69	110	0	na
13486	46	non	69	0	0	na
13488	2	non	81	110	0	na
13534	46	non	81	0	0	na
13536	2	non	69	110	0	na
13582	46	non	69	0	0	na
13584	2	non	81	110	0	na
13630	46	non	81	0	0	na
13632	2	non	69	110	0	na
13678	46	non	69	0	0	na
13680	2	non	81	110	0	na
13726	46	non	81	0	0	na
13728	2	non	69	110	0	na
13774	46	non	69	0	0	na
13776	2	non	81	110	0	na
13822	46	non	81	0	0	na
13824	2	non	69	110	0	na
13870	46	non	69	0	0	na
13872	2	non	81	110	0	na
13918	46	non	81	0	0	na
13920	2	non	69	110	0	na
13966	46	non	69	0	0	na
13968	2	non	81	110	0	na
14014	46	non	81	0	0	na
14016	2	non	69	110	0	na
14062	46	non	69	0	0	na
14064	2	non	81	110	0	na
14110	46	non	81	0	0	na
14112	2	non	69	110	0	na
14158	46	non	69	0	0	na
14160	2	non	81	110	0	na
14206	46	non	81	0	0	na
14208	2	non	69	110	0	na
14254	46	non	69	0	0	na
14256	2	non	81	110	0	na
14302	46	non	81	0	0	na
14304	2	non	53	110	0	na
14304	0	non	69	110	0	na
14350	46	non	53	0	0	na
14350	0	non	69	0	0	na
14352	2	non	81	110	0	na
14398	46	non	81	0	0	na
14400	2	non	69	110	0	na
14446	46	non	69	0	0	na
14448	2	non	81	110	0	na
14494	46	non	81	0	0	na
14496	2	non	69	110	0	na
14542	46	non	69	0	0	na
14544	2	non	81	110	0	na
14590	46	non	81	0	0	na
14592	2	non	57	110	0	na
14686	94	non	57	0	0	na
14688	2	non	52	110	0	na
14688	0	non	64	110	0	na
14782	94	non	52	0	0	na
14782	0	non	64	0	0	na
14784	2	non	57	110	0	na
14878	94	non	57	0	0	na
14880	2	non	52	110	0	na
14880	0	non	64	110	0	na
14974	94	non	52	0	0	na
14974	0	non	64	0	0	na
14976	2	non	57	110	0	na
15070	94	non	57	0	0	na
15072	2	non	63	110	0	na
15166	94	non	63	0	0	na
15360	194	non	57	110	0	na
15454	94	non	57	0	0	na
15456	2	non	62	110	0	na
15550	94	non	62	0	0	na
15552	2	non	57	110	0	na
15646	94	non	57	0	0	na
15648	2	non	62	110	0	na
15742	94	non	62	0	0	na
15744	2	non	57	110	0	na
15838	94	non	57	0	0	na
15840	2	non	53	110	0	na
15840	0	non	65	110	0	na
15934	94	non	53	0	0	na
15934	0	non	65	0	0	na
16128	194	non	57	110	0	na
16222	94	non	57	0	0	na
16224	2	non	52	110	0	na
16224	0	non	64	110	0	na
16318	94	non	52	0	0	na
16318	0	non	64	0	0	na
16320	2	non	57	110	0	na
16414	94	non	57	0	0	na
16416	2	non	52	110	0	na
16416	0	non	64	110	0	na
16510	94	non	52	0	0	na
16510	0	non	64	0	0	na
16512	2	non	57	110	0	na
16606	94	non	57	0	0	na
16608	2	non	63	110	0	na
16702	94	non	63	0	0	na
16896	194	non	57	110	0	na
16990	94	non	57	0	0	na
16992	2	non	62	110	0	na
17086	94	non	62	0	0	na
17088	2	non	57	110	0	na
17182	94	non	57	0	0	na
17184	2	non	62	110	0	na
17278	94	non	62	0	0	na
17280	2	non	52	110	0	na
17280	0	non	57	110	0	na
17326	46	non	52	0	0	na
17326	0	non	57	0	0	na
17328	2	non	52	110	0	na
17374	46	non	52	0	0	na
17376	2	non	52	110	0	na
17422	46	non	52	0	0	na
17424	2	non	52	110	0	na
17470	46	non	52	0	0	na
17472	2	non	52	110	0	na
17518	46	non	52	0	0	na
17520	2	non	54	110	0	na
17566	46	non	54	0	0	na
17568	2	non	59	110	0	na
17662	94	non	59	0	0	na
17664	2	non	57	110	0	na
17758	94	non	57	0	0	na
17760	2	non	64	110	0	na
17854	94	non	64	0	0	na
17856	2	non	57	110	0	na
17950	94	non	57	0	0	na
17952	2	non	64	110	0	na
18046	94	non	64	0	0	na
18048	2	non	57	110	0	na
18142	94	non	57	0	0	na
18144	2	non	63	110	0	na
18238	94	non	63	0	0	na
18432	194	non	57	110	0	na
18526	94	non	57	0	0	na
18528	2	non	62	110	0	na
18622	94	non	62	0	0	na
18624	2	non	57	110	0	na
18718	94	non	57	0	0	na
18720	2	non	62	110	0	na
18814	94	non	62	0	0	na
18816	2	non	57	110	0	na
18958	142	non	57	0	0	na
18960	2	non	69	110	0	na
19006	46	non	69	0	0	na
19080	74	non	65	110	0	na
19198	118	non	65	0	0	na
19200	2	non	57	110	0	na
19294	94	non	57	0	0	na
19296	2	non	64	110	0	na
19390	94	non	64	0	0	na
19392	2	non	57	110	0	na
19486	94	non	57	0	0	na
19488	2	non	64	110	0	na
19582	94	non	64	0	0	na
19584	2	non	57	110	0	na
19678	94	non	57	0	0	na
19680	2	non	63	110	0	na
19774	94	non	63	0	0	na
19968	194	non	57	110	0	na
19968	0	non	62	110	0	na
20128	160	non	57	0	0	na
20128	0	non	62	0	0	na
20160	32	non	57	110	0	na
20160	0	non	62	110	0	na
20320	160	non	57	0	0	na
20320	0	non	62	0	0	na
20352	32	non	56	110	0	na
20352	0	non	65	110	0	na
20512	160	non	56	0	0	na
20512	0	non	65	0	0	na
20544	32	non	56	110	0	na
20544	0	non	65	110	0	na
20704	160	non	56	0	0	na
20704	0	non	65	0	0	na
20736	32	non	58	110	0	na
20736	0	non	61	110	0	na
20736	0	non	66	110	0	na
20896	160	non	58	0	0	na
20896	0	non	61	0	0	na
20896	0	non	66	0	0	na
20928	32	non	58	110	0	na
20928	0	non	61	110	0	na
20928	0	non	66	110	0	na
21088	160	non	58	0	0	na
21088	0	non	61	0	0	na
21088	0	non	66	0	0	na
21120	32	non	59	110	0	na
21120	0	non	61	110	0	na
21120	0	non	66	110	0	na
21280	160	non	59	0	0	na
21280	0	non	61	0	0	na
21280	0	non	66	0	0	na
21312	32	non	59	110	0	na
21312	0	non	61	110	0	na
21312	0	non	66	110	0	na
21472	160	non	59	0	0	na
21472	0	non	61	0	0	na
21472	0	non	66	0	0	na
21504	32	non	58	110	0	na
21504	0	non	61	110	0	na
21504	0	non	66	110	0	na
21664	160	non	58	0	0	na
21664	0	non	61	0	0	na
21664	0	non	66	0	0	na
21696	32	non	58	110	0	na
21696	0	non	61	110	0	na
21696	0	non	66	110	0	na
21856	160	non	58	0	0	na
21856	0	non	61	0	0	na
21856	0	non	66	0	0	na
21888	32	non	59	110	0	na
21888	0	non	63	110	0	na
21888	0	non	66	110	0	na
22048	160	non	59	0	0	na
22048	0	non	63	0	0	na
22048	0	non	66	0	0	na
22080	32	non	59	110	0	na
22080	0	non	63	110	0	na
22080	0	non	66	110	0	na
22222	142	non	59	0	0	na
22222	0	non	63	0	0	na
22222	0	non	66	0	0	na
22224	2	non	54	110	0	na
22270	46	non	54	0	0	na
22272	2	non	58	110	0	na
22272	0	non	61	110	0	na
22272	0	non	66	110	0	na
22432	160	non	58	0	0	na
22432	0	non	61	0	0	na
22432	0	non	66	0	0	na
22464	32	non	58	110	0	na
22464	0	non	61	110	0	na
22464	0	non	66	110	0	na
22624	160	non	58	0	0	na
22624	0	non	61	0	0	na
22624	0	non	66	0	0	na
22656	32	non	59	110	0	na
22656	0	non	61	110	0	na
22656	0	non	66	110	0	na
22816	160	non	59	0	0	na
22816	0	non	61	0	0	na
22816	0	non	66	0	0	na
22848	32	non	59	110	0	na
22848	0	non	61	110	0	na
22848	0	non	66	110	0	na
23008	160	non	59	0	0	na
23008	0	non	61	0	0	na
23008	0	non	66	0	0	na
23040	32	non	58	110	0	na
23040	0	non	61	110	0	na
23040	0	non	66	110	0	na
23200	160	non	58	0	0	na
23200	0	non	61	0	0	na
23200	0	non	66	0	0	na
23232	32	non	58	110	0	na
23232	0	non	61	110	0	na
23232	0	non	66	110	0	na
23392	160	non	58	0	0	na
23392	0	non	61	0	0	na
23392	0	non	66	0	0	na
23424	32	non	59	110	0	na
23424	0	non	63	110	0	na
23424	0	non	66	110	0	na
23584	160	non	59	0	0	na
23584	0	non	63	0	0	na
23584	0	non	66	0	0	na
23616	32	non	59	110	0	na
23616	0	non	63	110	0	na
23616	0	non	66	110	0	na
23758	142	non	59	0	0	na
23758	0	non	63	0	0	na
23758	0	non	66	0	0	na
23760	2	non	54	110	0	na
23806	46	non	54	0	0	na
23808	2	non	58	110	0	na
23808	0	non	61	110	0	na
23808	0	non	66	110	0	na
23968	160	non	58	0	0	na
23968	0	non	61	0	0	na
23968	0	non	66	0	0	na
24000	32	non	58	110	0	na
24000	0	non	61	110	0	na
24000	0	non	66	110	0	na
24160	160	non	58	0	0	na
24160	0	non	61	0	0	na
24160	0	non	66	0	0	na
24192	32	non	59	110	0	na
24192	0	non	61	110	0	na
24192	0	non	66	110	0	na
24352	160	non	59	0	0	na
24352	0	non	61	0	0	na
24352	0	non	66	0	0	na
24384	32	non	59	110	0	na
24384	0	non	61	110	0	na
24384	0	non	66	110	0	na
24544	160	non	59	0	0	na
24544	0	non	61	0	0	na
24544	0	non	66	0	0	na
24576	32	non	58	110	0	na
24576	0	non	61	110	0	na
24576	0	non	66	110	0	na
24736	160	non	58	0	0	na
24736	0	non	61	0	0	na
24736	0	non	66	0	0	na
24768	32	non	58	110	0	na
24768	0	non	61	110	0	na
24768	0	non	66	110	0	na
24928	160	non	58	0	0	na
24928	0	non	61	0	0	na
24928	0	non	66	0	0	na
24960	32	non	59	110	0	na
24960	0	non	63	110	0	na
24960	0	non	66	110	0	na
25120	160	non	59	0	0	na
25120	0	non	63	0	0	na
25120	0	non	66	0	0	na
25152	32	non	59	110	0	na
25152	0	non	63	110	0	na
25152	0	non	66	110	0	na
25312	160	non	59	0	0	na
25312	0	non	63	0	0	na
25312	0	non	66	0	0	na
25344	32	non	59	110	0	na
25344	0	non	62	110	0	na
25344	0	non	66	110	0	na
25680	336	non	59	0	0	na
25680	0	non	62	0	0	na
25680	0	non	66	0	0	na
25728	48	non	59	110	0	na
25728	0	non	64	110	0	na
25888	160	non	59	0	0	na
25888	0	non	64	0	0	na
25920	32	non	59	110	0	na
25920	0	non	62	110	0	na
26080	160	non	59	0	0	na
26080	0	non	62	0	0	na
26208	128	non	52	110	0	na
26302	94	non	52	0	0	na
26400	98	non	52	110	0	na
26494	94	non	52	0	0	na
27360	866	non	53	110	0	na
27454	94	non	53	0	0	na
27648	194	non	57	110	0	na
27742	94	non	57	0	0	na
27744	2	non	52	110	0	na
27744	0	non	64	110	0	na
27838	94	non	52	0	0	na
27838	0	non	64	0	0	na
27840	2	non	57	110	0	na
27934	94	non	57	0	0	na
27936	2	non	52	110	0	na
27936	0	non	64	110	0	na
28030	94	non	52	0	0	na
28030	0	non	64	0	0	na
28032	2	non	57	110	0	na
28126	94	non	57	0	0	na
28128	2	non	63	110	0	na
28222	94	non	63	0	0	na
29184	962	non	57	110	0	na
29278	94	non	57	0	0	na
29280	2	non	52	110	0	na
29280	0	non	64	110	0	na
29374	94	non	52	0	0	na
29374	0	non	64	0	0	na
29376	2	non	57	110	0	na
29470	94	non	57	0	0	na
29472	2	non	52	110	0	na
29472	0	non	64	110	0	na
29566	94	non	52	0	0	na
29566	0	non	64	0	0	na
29568	2	non	57	110	0	na
29662	94	non	57	0	0	na
29664	2	non	63	110	0	na
29758	94	non	63	0	0	na
29952	194	non	57	110	0	na
30046	94	non	57	0	0	na
30048	2	non	62	110	0	na
30142	94	non	62	0	0	na
30144	2	non	57	110	0	na
30238	94	non	57	0	0	na
30240	2	non	62	110	0	na
30334	94	non	62	0	0	na
30336	2	non	52	110	0	na
30336	0	non	57	110	0	na
30382	46	non	52	0	0	na
30382	0	non	57	0	0	na
30384	2	non	52	110	0	na
30430	46	non	52	0	0	na
30432	2	non	52	110	0	na
30478	46	non	52	0	0	na
30480	2	non	52	110	0	na
30526	46	non	52	0	0	na
30528	2	non	52	110	0	na
30574	46	non	52	0	0	na
30576	2	non	54	110	0	na
30622	46	non	54	0	0	na
30624	2	non	59	110	0	na
30718	94	non	59	0	0	na
30720	2	non	57	110	0	na
30814	94	non	57	0	0	na
30816	2	non	57	110	0	na
30816	0	non	64	110	0	na
30910	94	non	57	0	0	na
30910	0	non	64	0	0	na
30912	2	non	57	110	0	na
31006	94	non	57	0	0	na
31008	2	non	57	110	0	na
31008	0	non	64	110	0	na
31102	94	non	57	0	0	na
31102	0	non	64	0	0	na
31104	2	non	57	110	0	na
31198	94	non	57	0	0	na
31200	2	non	57	110	0	na
31200	0	non	63	110	0	na
31294	94	non	57	0	0	na
31294	0	non	63	0	0	na
31488	194	non	57	110	0	na
31582	94	non	57	0	0	na
31584	2	non	57	110	0	na
31584	0	non	62	110	0	na
31678	94	non	57	0	0	na
31678	0	non	62	0	0	na
31680	2	non	57	110	0	na
31774	94	non	57	0	0	na
31776	2	non	57	110	0	na
31776	0	non	62	110	0	na
31870	94	non	57	0	0	na
31870	0	non	62	0	0	na
31872	2	non	57	110	0	na
32014	142	non	57	0	0	na
32016	2	non	69	110	0	na
32062	46	non	69	0	0	na
32136	74	non	65	110	0	na
32254	118	non	65	0	0	na
32256	2	non	57	110	0	na
32350	94	non	57	0	0	na
32352	2	non	57	110	0	na
32352	0	non	64	110	0	na
32446	94	non	57	0	0	na
32446	0	non	64	0	0	na
32448	2	non	57	110	0	na
32542	94	non	57	0	0	na
32544	2	non	57	110	0	na
32544	0	non	64	110	0	na
32638	94	non	57	0	0	na
32638	0	non	64	0	0	na
32640	2	non	57	110	0	na
32734	94	non	57	0	0	na
32736	2	non	57	110	0	na
32736	0	non	63	110	0	na
32830	94	non	57	0	0	na
32830	0	non	63	0	0	na
33024	194	non	57	110	0	na
33024	0	non	62	110	0	na
33184	160	non	57	0	0	na
33184	0	non	62	0	0	na
33216	32	non	57	110	0	na
33216	0	non	62	110	0	na
33376	160	non	57	0	0	na
33376	0	non	62	0	0	na
33408	32	non	56	110	0	na
33408	0	non	65	110	0	na
33568	160	non	56	0	0	na
33568	0	non	65	0	0	na
33600	32	non	56	110	0	na
33600	0	non	65	110	0	na
33760	160	non	56	0	0	na
33760	0	non	65	0	0	na
33792	32	non	58	110	0	na
33792	0	non	61	110	0	na
33792	0	non	66	110	0	na
33952	160	non	58	0	0	na
33952	0	non	61	0	0	na
33952	0	non	66	0	0	na
33984	32	non	58	110	0	na
33984	0	non	61	110	0	na
33984	0	non	66	110	0	na
34144	160	non	58	0	0	na
34144	0	non	61	0	0	na
34144	0	non	66	0	0	na
34176	32	non	59	110	0	na
34176	0	non	61	110	0	na
34176	0	non	66	110	0	na
34336	160	non	59	0	0	na
34336	0	non	61	0	0	na
34336	0	non	66	0	0	na
34368	32	non	59	110	0	na
34368	0	non	61	110	0	na
34368	0	non	66	110	0	na
34528	160	non	59	0	0	na
34528	0	non	61	0	0	na
34528	0	non	66	0	0	na
34560	32	non	58	110	0	na
34560	0	non	61	110	0	na
34560	0	non	66	110	0	na
34720	160	non	58	0	0	na
34720	0	non	61	0	0	na
34720	0	non	66	0	0	na
34752	32	non	58	110	0	na
34752	0	non	61	110	0	na
34752	0	non	66	110	0	na
34912	160	non	58	0	0	na
34912	0	non	61	0	0	na
34912	0	non	66	0	0	na
34944	32	non	59	110	0	na
34944	0	non	63	110	0	na
34944	0	non	66	110	0	na
35104	160	non	59	0	0	na
35104	0	non	63	0	0	na
35104	0	non	66	0	0	na
35136	32	non	59	110	0	na
35136	0	non	63	110	0	na
35136	0	non	66	110	0	na
35278	142	non	59	0	0	na
35278	0	non	63	0	0	na
35278	0	non	66	0	0	na
35280	2	non	54	110	0	na
35326	46	non	54	0	0	na
35328	2	non	58	110	0	na
35328	0	non	61	110	0	na
35328	0	non	66	110	0	na
35488	160	non	58	0	0	na
35488	0	non	61	0	0	na
35488	0	non	66	0	0	na
35520	32	non	58	110	0	na
35520	0	non	61	110	0	na
35520	0	non	66	110	0	na
35680	160	non	58	0	0	na
35680	0	non	61	0	0	na
35680	0	non	66	0	0	na
35712	32	non	59	110	0	na
35712	0	non	61	110	0	na
35712	0	non	66	110	0	na
35872	160	non	59	0	0	na
35872	0	non	61	0	0	na
35872	0	non	66	0	0	na
35904	32	non	59	110	0	na
35904	0	non	61	110	0	na
35904	0	non	66	110	0	na
36064	160	non	59	0	0	na
36064	0	non	61	0	0	na
36064	0	non	66	0	0	na
36096	32	non	58	110	0	na
36096	0	non	61	110	0	na
36096	0	non	66	110	0	na
36256	160	non	58	0	0	na
36256	0	non	61	0	0	na
36256	0	non	66	0	0	na
36288	32	non	58	110	0	na
36288	0	non	61	110	0	na
36288	0	non	66	110	0	na
36448	160	non	58	0	0	na
36448	0	non	61	0	0	na
36448	0	non	66	0	0	na
36480	32	non	59	110	0	na
36480	0	non	63	110	0	na
36480	0	non	66	110	0	na
36640	160	non	59	0	0	na
36640	0	non	63	0	0	na
36640	0	non	66	0	0	na
36672	32	non	59	110	0	na
36672	0	non	63	110	0	na
36672	0	non	66	110	0	na
36814	142	non	59	0	0	na
36814	0	non	63	0	0	na
36814	0	non	66	0	0	na
36816	2	non	54	110	0	na
36862	46	non	54	0	0	na
36864	2	non	58	110	0	na
36864	0	non	61	110	0	na
36864	0	non	66	110	0	na
37024	160	non	58	0	0	na
37024	0	non	61	0	0	na
37024	0	non	66	0	0	na
37056	32	non	58	110	0	na
37056	0	non	61	110	0	na
37056	0	non	66	110	0	na
37216	160	non	58	0	0	na
37216	0	non	61	0	0	na
37216	0	non	66	0	0	na
37248	32	non	59	110	0	na
37248	0	non	61	110	0	na
37248	0	non	66	110	0	na
37408	160	non	59	0	0	na
37408	0	non	61	0	0	na
37408	0	non	66	0	0	na
37440	32	non	59	110	0	na
37440	0	non	61	110	0	na
37440	0	non	66	110	0	na
37600	160	non	59	0	0	na
37600	0	non	61	0	0	na
37600	0	non	66	0	0	na
37632	32	non	58	110	0	na
37632	0	non	61	110	0	na
37632	0	non	66	110	0	na
37792	160	non	58	0	0	na
37792	0	non	61	0	0	na
37792	0	non	66	0	0	na
37824	32	non	58	110	0	na
37824	0	non	61	110	0	na
37824	0	non	66	110	0	na
37984	160	non	58	0	0	na
37984	0	non	61	0	0	na
37984	0	non	66	0	0	na
38016	32	non	59	110	0	na
38016	0	non	63	110	0	na
38016	0	non	66	110	0	na
38176	160	non	59	0	0	na
38176	0	non	63	0	0	na
38176	0	non	66	0	0	na
38208	32	non	59	110	0	na
38208	0	non	63	110	0	na
38208	0	non	66	110	0	na
38368	160	non	59	0	0	na
38368	0	non	63	0	0	na
38368	0	non	66	0	0	na
38400	32	non	59	110	0	na
38400	0	non	62	110	0	na
38400	0	non	66	110	0	na
38736	336	non	59	0	0	na
38736	0	non	62	0	0	na
38736	0	non	66	0	0	na
38784	48	non	59	110	0	na
38784	0	non	64	110	0	na
38944	160	non	59	0	0	na
38944	0	non	64	0	0	na
38976	32	non	59	110	0	na
38976	0	non	62	110	0	na
39136	160	non	59	0	0	na
39136	0	non	62	0	0	na
39168	32	non	57	110	0	na
39168	0	non	61	110	0	na
39168	0	non	64	110	0	na
39328	160	non	57	0	0	na
39328	0	non	61	0	0	na
39328	0	non	64	0	0	na
39360	32	non	57	110	0	na
39360	0	non	61	110	0	na
39360	0	non	64	110	0	na
39520	160	non	57	0	0	na
39520	0	non	61	0	0	na
39520	0	non	64	0	0	na
39552	32	non	57	110	0	na
39552	0	non	61	110	0	na
39552	0	non	66	110	0	na
39712	160	non	57	0	0	na
39712	0	non	61	0	0	na
39712	0	non	66	0	0	na
39744	32	non	57	110	0	na
39744	0	non	61	110	0	na
39744	0	non	66	110	0	na
39904	160	non	57	0	0	na
39904	0	non	61	0	0	na
39904	0	non	66	0	0	na
39936	32	non	59	110	0	na
39936	0	non	62	110	0	na
39936	0	non	66	110	0	na
40272	336	non	59	0	0	na
40272	0	non	62	0	0	na
40272	0	non	66	0	0	na
40320	48	non	59	110	0	na
40320	0	non	64	110	0	na
40480	160	non	59	0	0	na
40480	0	non	64	0	0	na
40512	32	non	59	110	0	na
40512	0	non	62	110	0	na
40672	160	non	59	0	0	na
40672	0	non	62	0	0	na
40704	32	non	57	110	0	na
40704	0	non	61	110	0	na
40704	0	non	64	110	0	na
40864	160	non	57	0	0	na
40864	0	non	61	0	0	na
40864	0	non	64	0	0	na
40896	32	non	57	110	0	na
40896	0	non	61	110	0	na
40896	0	non	64	110	0	na
41056	160	non	57	0	0	na
41056	0	non	61	0	0	na
41056	0	non	64	0	0	na
41088	32	non	57	110	0	na
41088	0	non	61	110	0	na
41088	0	non	66	110	0	na
41248	160	non	57	0	0	na
41248	0	non	61	0	0	na
41248	0	non	66	0	0	na
41280	32	non	57	110	0	na
41280	0	non	61	110	0	na
41280	0	non	66	110	0	na
41440	160	non	57	0	0	na
41440	0	non	61	0	0	na
41440	0	non	66	0	0	na
41472	32	non	59	110	0	na
41472	0	non	62	110	0	na
41472	0	non	66	110	0	na
41808	336	non	59	0	0	na
41808	0	non	62	0	0	na
41808	0	non	66	0	0	na
41856	48	non	59	110	0	na
41856	0	non	64	110	0	na
42016	160	non	59	0	0	na
42016	0	non	64	0	0	na
42048	32	non	59	110	0	na
42048	0	non	62	110	0	na
42208	160	non	59	0	0	na
42208	0	non	62	0	0	na
42240	32	non	57	110	0	na
42240	0	non	61	110	0	na
42240	0	non	69	110	0	na
42576	336	non	57	0	0	na
42576	0	non	61	0	0	na
42576	0	non	69	0	0	na
cumTime	delTime	event	pitch	vel	chan	value
0	0	non	45	110	2	na
160	160	non	45	0	2	na
192	32	non	45	110	2	na
352	160	non	45	0	2	na
384	32	non	45	110	2	na
478	94	non	45	0	2	na
480	2	non	51	110	2	na
574	94	non	51	0	2	na
768	194	non	45	110	2	na
862	94	non	45	0	2	na
864	2	non	50	110	2	na
958	94	non	50	0	2	na
960	2	non	45	110	2	na
1054	94	non	45	0	2	na
1056	2	non	50	110	2	na
1150	94	non	50	0	2	na
1152	2	non	45	110	2	na
1312	160	non	45	0	2	na
1536	224	non	45	110	2	na
1696	160	non	45	0	2	na
1728	32	non	45	110	2	na
1888	160	non	45	0	2	na
1920	32	non	45	110	2	na
2014	94	non	45	0	2	na
2016	2	non	51	110	2	na
2110	94	non	51	0	2	na
2304	194	non	45	110	2	na
2398	94	non	45	0	2	na
2400	2	non	50	110	2	na
2494	94	non	50	0	2	na
2496	2	non	45	110	2	na
2590	94	non	45	0	2	na
2592	2	non	50	110	2	na
2686	94	non	50	0	2	na
2688	2	non	45	110	2	na
2848	160	non	45	0	2	na
3072	224	non	45	110	2	na
3232	160	non	45	0	2	na
3264	32	non	45	110	2	na
3424	160	non	45	0	2	na
3456	32	non	45	110	2	na
3550	94	non	45	0	2	na
3552	2	non	51	110	2	na
3646	94	non	51	0	2	na
3840	194	non	45	110	2	na
4000	160	non	45	0	2	na
4032	32	non	45	110	2	na
4192	160	non	45	0	2	na
4224	32	non	40	110	2	na
4270	46	non	40	0	2	na
4272	2	non	40	110	2	na
4318	46	non	40	0	2	na
4320	2	non	40	110	2	na
4366	46	non	40	0	2	na
4368	2	non	40	110	2	na
4414	46	non	40	0	2	na
4416	2	non	40	110	2	na
4462	46	non	40	0	2	na
4464	2	non	42	110	2	na
4510	46	non	42	0	2	na
4512	2	non	47	110	2	na
4606	94	non	47	0	2	na
4608	2	non	45	110	2	na
4768	160	non	45	0	2	na
4800	32	non	45	110	2	na
4960	160	non	45	0	2	na
4992	32	non	45	110	2	na
5152	160	non	45	0	2	na
5376	224	non	45	110	2	na
5536	160	non	45	0	2	na
5568	32	non	45	110	2	na
5728	160	non	45	0	2	na
5760	32	non	45	110	2	na
5920	160	non	45	0	2	na
6144	224	non	45	110	2	na
6304	160	non	45	0	2	na
6336	32	non	45	110	2	na
6496	160	non	45	0	2	na
6528	32	non	45	110	2	na
6688	160	non	45	0	2	na
6912	224	non	38	110	2	na
6912	0	non	50	110	2	na
7072	160	non	38	0	2	na
7072	0	non	50	0	2	na
7104	32	non	38	110	2	na
7104	0	non	50	110	2	na
7264	160	non	38	0	2	na
7264	0	non	50	0	2	na
7296	32	non	37	110	2	na
7390	94	non	37	0	2	na
7392	2	non	44	110	2	na
7486	94	non	44	0	2	na
7488	2	non	49	110	2	na
7582	94	non	49	0	2	na
7584	2	non	44	110	2	na
7678	94	non	44	0	2	na
7680	2	non	42	110	2	na
7774	94	non	42	0	2	na
7776	2	non	42	110	2	na
7870	94	non	42	0	2	na
7968	98	non	42	110	2	na
8014	46	non	42	0	2	na
8016	2	non	42	110	2	na
8062	46	non	42	0	2	na
8064	2	non	44	110	2	na
8158	94	non	44	0	2	na
8160	2	non	44	110	2	na
8254	94	non	44	0	2	na
8352	98	non	44	110	2	na
8398	46	non	44	0	2	na
8400	2	non	44	110	2	na
8446	46	non	44	0	2	na
8448	2	non	46	110	2	na
8542	94	non	46	0	2	na
8544	2	non	46	110	2	na
8638	94	non	46	0	2	na
8736	98	non	46	110	2	na
8782	46	non	46	0	2	na
8784	2	non	46	110	2	na
8830	46	non	46	0	2	na
8832	2	non	47	110	2	na
8926	94	non	47	0	2	na
8928	2	non	47	110	2	na
9022	94	non	47	0	2	na
9024	2	non	47	110	2	na
9070	46	non	47	0	2	na
9072	2	non	49	110	2	na
9118	46	non	49	0	2	na
9120	2	non	51	110	2	na
9214	94	non	51	0	2	na
9216	2	non	42	110	2	na
9310	94	non	42	0	2	na
9312	2	non	42	110	2	na
9406	94	non	42	0	2	na
9504	98	non	42	110	2	na
9550	46	non	42	0	2	na
9552	2	non	42	110	2	na
9598	46	non	42	0	2	na
9600	2	non	44	110	2	na
9694	94	non	44	0	2	na
9696	2	non	44	110	2	na
9790	94	non	44	0	2	na
9888	98	non	44	110	2	na
9934	46	non	44	0	2	na
9936	2	non	44	110	2	na
9982	46	non	44	0	2	na
9984	2	non	46	110	2	na
10078	94	non	46	0	2	na
10080	2	non	46	110	2	na
10174	94	non	46	0	2	na
10272	98	non	46	110	2	na
10318	46	non	46	0	2	na
10320	2	non	46	110	2	na
10366	46	non	46	0	2	na
10368	2	non	47	110	2	na
10462	94	non	47	0	2	na
10464	2	non	47	110	2	na
10558	94	non	47	0	2	na
10560	2	non	47	110	2	na
10606	46	non	47	0	2	na
10608	2	non	49	110	2	na
10654	46	non	49	0	2	na
10656	2	non	51	110	2	na
10750	94	non	51	0	2	na
10752	2	non	42	110	2	na
10846	94	non	42	0	2	na
10848	2	non	42	110	2	na
10942	94	non	42	0	2	na
11040	98	non	42	110	2	na
11086	46	non	42	0	2	na
11088	2	non	42	110	2	na
11134	46	non	42	0	2	na
11136	2	non	44	110	2	na
11230	94	non	44	0	2	na
11232	2	non	44	110	2	na
11326	94	non	44	0	2	na
11424	98	non	44	110	2	na
11470	46	non	44	0	2	na
11472	2	non	44	110	2	na
11518	46	non	44	0	2	na
11520	2	non	46	110	2	na
11614	94	non	46	0	2	na
11616	2	non	46	110	2	na
11710	94	non	46	0	2	na
11808	98	non	46	110	2	na
11854	46	non	46	0	2	na
11856	2	non	46	110	2	na
11902	46	non	46	0	2	na
11904	2	non	47	110	2	na
11998	94	non	47	0	2	na
12000	2	non	47	110	2	na
12094	94	non	47	0	2	na
12096	2	non	47	110	2	na
12190	94	non	47	0	2	na
12192	2	non	47	110	2	na
12286	94	non	47	0	2	na
12288	2	non	47	110	2	na
12382	94	non	47	0	2	na
12384	2	non	47	110	2	na
12478	94	non	47	0	2	na
12480	2	non	47	110	2	na
12574	94	non	47	0	2	na
12576	2	non	47	110	2	na
12670	94	non	47	0	2	na
12672	2	non	40	110	2	na
12766	94	non	40	0	2	na
12768	2	non	40	110	2	na
12862	94	non	40	0	2	na
12864	2	non	40	110	2	na
12958	94	non	40	0	2	na
12960	2	non	40	110	2	na
13054	94	non	40	0	2	na
13056	2	non	33	110	2	na
13056	0	non	45	110	2	na
13216	160	non	33	0	2	na
13216	0	non	45	0	2	na
13248	32	non	45	110	2	na
13408	160	non	45	0	2	na
13440	32	non	45	110	2	na
13534	94	non	45	0	2	na
13536	2	non	51	110	2	na
13630	94	non	51	0	2	na
13824	194	non	45	110	2	na
13918	94	non	45	0	2	na
13920	2	non	50	110	2	na
14014	94	non	50	0	2	na
14016	2	non	45	110	2	na
14110	94	non	45	0	2	na
14112	2	non	50	110	2	na
14206	94	non	50	0	2	na
14208	2	non	45	110	2	na
14368	160	non	45	0	2	na
14592	224	non	45	110	2	na
14752	160	non	45	0	2	na
14784	32	non	45	110	2	na
14944	160	non	45	0	2	na
14976	32	non	45	110	2	na
15070	94	non	45	0	2	na
15072	2	non	51	110	2	na
15166	94	non	51	0	2	na
15360	194	non	45	110	2	na
15454	94	non	45	0	2	na
15456	2	non	50	110	2	na
15550	94	non	50	0	2	na
15552	2	non	45	110	2	na
15646	94	non	45	0	2	na
15648	2	non	50	110	2	na
15742	94	non	50	0	2	na
15744	2	non	45	110	2	na
15904	160	non	45	0	2	na
16128	224	non	45	110	2	na
16288	160	non	45	0	2	na
16320	32	non	45	110	2	na
16480	160	non	45	0	2	na
16512	32	non	45	110	2	na
16606	94	non	45	0	2	na
16608	2	non	51	110	2	na
16702	94	non	51	0	2	na
16896	194	non	45	110	2	na
17056	160	non	45	0	2	na
17088	32	non	45	110	2	na
17248	160	non	45	0	2	na
17280	32	non	40	110	2	na
17326	46	non	40	0	2	na
17328	2	non	40	110	2	na
17374	46	non	40	0	2	na
17376	2	non	40	110	2	na
17422	46	non	40	0	2	na
17424	2	non	40	110	2	na
17470	46	non	40	0	2	na
17472	2	non	40	110	2	na
17518	46	non	40	0	2	na
17520	2	non	42	110	2	na
17566	46	non	42	0	2	na
17568	2	non	47	110	2	na
17662	94	non	47	0	2	na
17664	2	non	45	110	2	na
17824	160	non	45	0	2	na
17856	32	non	45	110	2	na
18016	160	non	45	0	2	na
18048	32	non	45	110	2	na
18208	160	non	45	0	2	na
18432	224	non	45	110	2	na
18592	160	non	45	0	2	na
18624	32	non	45	110	2	na
18784	160	non	45	0	2	na
18816	32	non	45	110	2	na
18976	160	non	45	0	2	na
19200	224	non	45	110	2	na
19360	160	non	45	0	2	na
19392	32	non	45	110	2	na
19552	160	non	45	0	2	na
19584	32	non	45	110	2	na
19744	160	non	45	0	2	na
19968	224	non	38	110	2	na
19968	0	non	50	110	2	na
20128	160	non	38	0	2	na
20128	0	non	50	0	2	na
20160	32	non	38	110	2	na
20160	0	non	50	110	2	na
20320	160	non	38	0	2	na
20320	0	non	50	0	2	na
20352	32	non	37	110	2	na
20446	94	non	37	0	2	na
20448	2	non	44	110	2	na
20542	94	non	44	0	2	na
20544	2	non	49	110	2	na
20638	94	non	49	0	2	na
20640	2	non	44	110	2	na
20734	94	non	44	0	2	na
20736	2	non	42	110	2	na
20830	94	non	42	0	2	na
20832	2	non	42	110	2	na
20926	94	non	42	0	2	na
21024	98	non	42	110	2	na
21070	46	non	42	0	2	na
21072	2	non	42	110	2	na
21118	46	non	42	0	2	na
21120	2	non	44	110	2	na
21214	94	non	44	0	2	na
21216	2	non	44	110	2	na
21310	94	non	44	0	2	na
21408	98	non	44	110	2	na
21454	46	non	44	0	2	na
21456	2	non	44	110	2	na
21502	46	non	44	0	2	na
21504	2	non	46	110	2	na
21598	94	non	46	0	2	na
21600	2	non	46	110	2	na
21694	94	non	46	0	2	na
21792	98	non	46	110	2	na
21838	46	non	46	0	2	na
21840	2	non	46	110	2	na
21886	46	non	46	0	2	na
21888	2	non	47	110	2	na
21982	94	non	47	0	2	na
21984	2	non	47	110	2	na
22078	94	non	47	0	2	na
22080	2	non	47	110	2	na
22126	46	non	47	0	2	na
22128	2	non	49	110	2	na
22174	46	non	49	0	2	na
22176	2	non	51	110	2	na
22270	94	non	51	0	2	na
22272	2	non	42	110	2	na
22366	94	non	42	0	2	na
22368	2	non	42	110	2	na
22462	94	non	42	0	2	na
22560	98	non	42	110	2	na
22606	46	non	42	0	2	na
22608	2	non	42	110	2	na
22654	46	non	42	0	2	na
22656	2	non	44	110	2	na
22750	94	non	44	0	2	na
22752	2	non	44	110	2	na
22846	94	non	44	0	2	na
22944	98	non	44	110	2	na
22990	46	non	44	0	2	na
22992	2	non	44	110	2	na
23038	46	non	44	0	2	na
23040	2	non	46	110	2	na
23134	94	non	46	0	2	na
23136	2	non	46	110	2	na
23230	94	non	46	0	2	na
23328	98	non	46	110	2	na
23374	46	non	46	0	2	na
23376	2	non	46	110	2	na
23422	46	non	46	0	2	na
23424	2	non	47	110	2	na
23518	94	non	47	0	2	na
23520	2	non	47	110	2	na
23614	94	non	47	0	2	na
23616	2	non	47	110	2	na
23662	46	non	47	0	2	na
23664	2	non	49	110	2	na
23710	46	non	49	0	2	na
23712	2	non	51	110	2	na
23806	94	non	51	0	2	na
23808	2	non	42	110	2	na
23902	94	non	42	0	2	na
23904	2	non	42	110	2	na
23998	94	non	42	0	2	na
24096	98	non	42	110	2	na
24142	46	non	42	0	2	na
24144	2	non	42	110	2	na
24190	46	non	42	0	2	na
24192	2	non	44	110	2	na
24286	94	non	44	0	2	na
24288	2	non	44	110	2	na
24382	94	non	44	0	2	na
24480	98	non	44	110	2	na
24526	46	non	44	0	2	na
24528	2	non	44	110	2	na
24574	46	non	44	0	2	na
24576	2	non	46	110	2	na
24670	94	non	46	0	2	na
24672	2	non	46	110	2	na
24766	94	non	46	0	2	na
24864	98	non	46	110	2	na
24910	46	non	46	0	2	na
24912	2	non	46	110	2	na
24958	46	non	46	0	2	na
24960	2	non	47	110	2	na
25054	94	non	47	0	2	na
25056	2	non	47	110	2	na
25150	94	non	47	0	2	na
25152	2	non	47	110	2	na
25246	94	non	47	0	2	na
25248	2	non	47	110	2	na
25342	94	non	47	0	2	na
25344	2	non	47	110	2	na
25438	94	non	47	0	2	na
25440	2	non	47	110	2	na
25534	94	non	47	0	2	na
25536	2	non	47	110	2	na
25630	94	non	47	0	2	na
25632	2	non	47	110	2	na
25726	94	non	47	0	2	na
25728	2	non	40	110	2	na
25822	94	non	40	0	2	na
25824	2	non	40	110	2	na
25918	94	non	40	0	2	na
25920	2	non	40	110	2	na
26014	94	non	40	0	2	na
26016	2	non	40	110	2	na
26110	94	non	40	0	2	na
26112	2	non	45	110	2	na
26272	160	non	45	0	2	na
26304	32	non	45	110	2	na
26464	160	non	45	0	2	na
26496	32	non	45	110	2	na
26590	94	non	45	0	2	na
26592	2	non	51	110	2	na
26686	94	non	51	0	2	na
26880	194	non	45	110	2	na
26974	94	non	45	0	2	na
26976	2	non	50	110	2	na
27070	94	non	50	0	2	na
27072	2	non	45	110	2	na
27166	94	non	45	0	2	na
27168	2	non	50	110	2	na
27262	94	non	50	0	2	na
27264	2	non	45	110	2	na
27424	160	non	45	0	2	na
27648	224	non	45	110	2	na
27808	160	non	45	0	2	na
27840	32	non	45	110	2	na
28000	160	non	45	0	2	na
28032	32	non	45	110	2	na
28126	94	non	45	0	2	na
28128	2	non	51	110	2	na
28222	94	non	51	0	2	na
29184	962	non	45	110	2	na
29344	160	non	45	0	2	na
29376	32	non	45	110	2	na
29536	160	non	45	0	2	na
29568	32	non	45	110	2	na
29662	94	non	45	0	2	na
29664	2	non	51	110	2	na
29758	94	non	51	0	2	na
29952	194	non	45	110	2	na
30112	160	non	45	0	2	na
30144	32	non	45	110	2	na
30304	160	non	45	0	2	na
30336	32	non	40	110	2	na
30382	46	non	40	0	2	na
30384	2	non	40	110	2	na
30430	46	non	40	0	2	na
30432	2	non	40	110	2	na
30478	46	non	40	0	2	na
30480	2	non	40	110	2	na
30526	46	non	40	0	2	na
30528	2	non	40	110	2	na
30574	46	non	40	0	2	na
30576	2	non	42	110	2	na
30622	46	non	42	0	2	na
30624	2	non	47	110	2	na
30718	94	non	47	0	2	na
30720	2	non	45	110	2	na
30814	94	non	45	0	2	na
30816	2	non	45	110	2	na
30910	94	non	45	0	2	na
30912	2	non	45	110	2	na
31006	94	non	45	0	2	na
31008	2	non	45	110	2	na
31102	94	non	45	0	2	na
31104	2	non	45	110	2	na
31198	94	non	45	0	2	na
31200	2	non	45	110	2	na
31294	94	non	45	0	2	na
31488	194	non	45	110	2	na
31582	94	non	45	0	2	na
31584	2	non	45	110	2	na
31678	94	non	45	0	2	na
31680	2	non	45	110	2	na
31774	94	non	45	0	2	na
31776	2	non	45	110	2	na
31870	94	non	45	0	2	na
31872	2	non	45	110	2	na
32032	160	non	45	0	2	na
32256	224	non	45	110	2	na
32350	94	non	45	0	2	na
32352	2	non	45	110	2	na
32446	94	non	45	0	2	na
32448	2	non	45	110	2	na
32542	94	non	45	0	2	na
32544	2	non	45	110	2	na
32638	94	non	45	0	2	na
32640	2	non	45	110	2	na
32734	94	non	45	0	2	na
32736	2	non	45	110	2	na
32830	94	non	45	0	2	na
33024	194	non	38	110	2	na
33024	0	non	50	110	2	na
33070	46	non	38	0	2	na
33070	0	non	50	0	2	na
33072	2	non	38	110	2	na
33072	0	non	50	110	2	na
33118	46	non	38	0	2	na
33118	0	non	50	0	2	na
33120	2	non	38	110	2	na
33120	0	non	50	110	2	na
33166	46	non	38	0	2	na
33166	0	non	50	0	2	na
33168	2	non	38	110	2	na
33168	0	non	50	110	2	na
33214	46	non	38	0	2	na
33214	0	non	50	0	2	na
33216	2	non	38	110	2	na
33216	0	non	50	110	2	na
33262	46	non	38	0	2	na
33262	0	non	50	0	2	na
33264	2	non	38	110	2	na
33264	0	non	50	110	2	na
33310	46	non	38	0	2	na
33310	0	non	50	0	2	na
33312	2	non	38	110	2	na
33312	0	non	50	110	2	na
33358	46	non	38	0	2	na
33358	0	non	50	0	2	na
33360	2	non	38	110	2	na
33360	0	non	50	110	2	na
33406	46	non	38	0	2	na
33406	0	non	50	0	2	na
33408	2	non	37	110	2	na
33408	0	non	49	110	2	na
33454	46	non	37	0	2	na
33454	0	non	49	0	2	na
33456	2	non	37	110	2	na
33456	0	non	49	110	2	na
33502	46	non	37	0	2	na
33502	0	non	49	0	2	na
33504	2	non	37	110	2	na
33504	0	non	49	110	2	na
33550	46	non	37	0	2	na
33550	0	non	49	0	2	na
33552	2	non	37	110	2	na
33552	0	non	49	110	2	na
33598	46	non	37	0	2	na
33598	0	non	49	0	2	na
33600	2	non	37	110	2	na
33600	0	non	49	110	2	na
33646	46	non	37	0	2	na
33646	0	non	49	0	2	na
33648	2	non	37	110	2	na
33648	0	non	49	110	2	na
33694	46	non	37	0	2	na
33694	0	non	49	0	2	na
33696	2	non	37	110	2	na
33696	0	non	49	110	2	na
33742	46	non	37	0	2	na
33742	0	non	49	0	2	na
33744	2	non	37	110	2	na
33744	0	non	49	110	2	na
33790	46	non	37	0	2	na
33790	0	non	49	0	2	na
33792	2	non	30	110	2	na
33792	0	non	42	110	2	na
33886	94	non	30	0	2	na
33886	0	non	42	0	2	na
33888	2	non	30	110	2	na
33888	0	non	42	110	2	na
33982	94	non	30	0	2	na
33982	0	non	42	0	2	na
34080	98	non	30	110	2	na
34080	0	non	42	110	2	na
34126	46	non	30	0	2	na
34126	0	non	42	0	2	na
34128	2	non	30	110	2	na
34128	0	non	42	110	2	na
34174	46	non	30	0	2	na
34174	0	non	42	0	2	na
34176	2	non	32	110	2	na
34176	0	non	44	110	2	na
34270	94	non	32	0	2	na
34270	0	non	44	0	2	na
34272	2	non	32	110	2	na
34272	0	non	44	110	2	na
34366	94	non	32	0	2	na
34366	0	non	44	0	2	na
34464	98	non	32	110	2	na
34464	0	non	44	110	2	na
34510	46	non	32	0	2	na
34510	0	non	44	0	2	na
34512	2	non	32	110	2	na
34512	0	non	44	110	2	na
34558	46	non	32	0	2	na
34558	0	non	44	0	2	na
34560	2	non	34	110	2	na
34560	0	non	46	110	2	na
34654	94	non	34	0	2	na
34654	0	non	46	0	2	na
34656	2	non	34	110	2	na
34656	0	non	46	110	2	na
34750	94	non	34	0	2	na
34750	0	non	46	0	2	na
34848	98	non	34	110	2	na
34848	0	non	46	110	2	na
34894	46	non	34	0	2	na
34894	0	non	46	0	2	na
34896	2	non	34	110	2	na
34896	0	non	46	110	2	na
34942	46	non	34	0	2	na
34942	0	non	46	0	2	na
34944	2	non	35	110	2	na
34944	0	non	47	110	2	na
35038	94	non	35	0	2	na
35038	0	non	47	0	2	na
35040	2	non	35	110	2	na
35040	0	non	47	110	2	na
35134	94	non	35	0	2	na
35134	0	non	47	0	2	na
35136	2	non	35	110	2	na
35136	0	non	47	110	2	na
35182	46	non	35	0	2	na
35182	0	non	47	0	2	na
35184	2	non	37	110	2	na
35184	0	non	49	110	2	na
35230	46	non	37	0	2	na
35230	0	non	49	0	2	na
35232	2	non	39	110	2	na
35232	0	non	51	110	2	na
35278	46	non	39	0	2	na
35278	0	non	51	0	2	na
35280	2	non	42	110	2	na
35326	46	non	42	0	2	na
35328	2	non	30	110	2	na
35328	0	non	42	110	2	na
35422	94	non	30	0	2	na
35422	0	non	42	0	2	na
35424	2	non	30	110	2	na
35424	0	non	42	110	2	na
35518	94	non	30	0	2	na
35518	0	non	42	0	2	na
35616	98	non	30	110	2	na
35616	0	non	42	110	2	na
35662	46	non	30	0	2	na
35662	0	non	42	0	2	na
35664	2	non	30	110	2	na
35664	0	non	42	110	2	na
35710	46	non	30	0	2	na
35710	0	non	42	0	2	na
35712	2	non	32	110	2	na
35712	0	non	44	110	2	na
35806	94	non	32	0	2	na
35806	0	non	44	0	2	na
35808	2	non	32	110	2	na
35808	0	non	44	110	2	na
35902	94	non	32	0	2	na
35902	0	non	44	0	2	na
36000	98	non	32	110	2	na
36000	0	non	44	110	2	na
36046	46	non	32	0	2	na
36046	0	non	44	0	2	na
36048	2	non	32	110	2	na
36048	0	non	44	110	2	na
36094	46	non	32	0	2	na
36094	0	non	44	0	2	na
36096	2	non	34	110	2	na
36096	0	non	46	110	2	na
36190	94	non	34	0	2	na
36190	0	non	46	0	2	na
36192	2	non	34	110	2	na
36192	0	non	46	110	2	na
36286	94	non	34	0	2	na
36286	0	non	46	0	2	na
36384	98	non	34	110	2	na
36384	0	non	46	110	2	na
36430	46	non	34	0	2	na
36430	0	non	46	0	2	na
36432	2	non	34	110	2	na
36432	0	non	46	110	2	na
36478	46	non	34	0	2	na
36478	0	non	46	0	2	na
36480	2	non	35	110	2	na
36480	0	non	47	110	2	na
36574	94	non	35	0	2	na
36574	0	non	47	0	2	na
36576	2	non	35	110	2	na
36576	0	non	47	110	2	na
36670	94	non	35	0	2	na
36670	0	non	47	0	2	na
36672	2	non	35	110	2	na
36672	0	non	47	110	2	na
36718	46	non	35	0	2	na
36718	0	non	47	0	2	na
36720	2	non	37	110	2	na
36720	0	non	49	110	2	na
36766	46	non	37	0	2	na
36766	0	non	49	0	2	na
36768	2	non	39	110	2	na
36768	0	non	51	110	2	na
36814	46	non	39	0	2	na
36814	0	non	51	0	2	na
36816	2	non	42	110	2	na
36862	46	non	42	0	2	na
36864	2	non	30	110	2	na
36864	0	non	42	110	2	na
36958	94	non	30	0	2	na
36958	0	non	42	0	2	na
36960	2	non	30	110	2	na
36960	0	non	42	110	2	na
37054	94	non	30	0	2	na
37054	0	non	42	0	2	na
37152	98	non	30	110	2	na
37152	0	non	42	110	2	na
37198	46	non	30	0	2	na
37198	0	non	42	0	2	na
37200	2	non	30	110	2	na
37200	0	non	42	110	2	na
37246	46	non	30	0	2	na
37246	0	non	42	0	2	na
37248	2	non	32	110	2	na
37248	0	non	44	110	2	na
37342	94	non	32	0	2	na
37342	0	non	44	0	2	na
37344	2	non	32	110	2	na
37344	0	non	44	110	2	na
37438	94	non	32	0	2	na
37438	0	non	44	0	2	na
37536	98	non	32	110	2	na
37536	0	non	44	110	2	na
37582	46	non	32	0	2	na
37582	0	non	44	0	2	na
37584	2	non	32	110	2	na
37584	0	non	44	110	2	na
37630	46	non	32	0	2	na
37630	0	non	44	0	2	na
37632	2	non	34	110	2	na
37632	0	non	46	110	2	na
37726	94	non	34	0	2	na
37726	0	non	46	0	2	na
37728	2	non	34	110	2	na
37728	0	non	46	110	2	na
37822	94	non	34	0	2	na
37822	0	non	46	0	2	na
37920	98	non	34	110	2	na
37920	0	non	46	110	2	na
37966	46	non	34	0	2	na
37966	0	non	46	0	2	na
37968	2	non	34	110	2	na
37968	0	non	46	110	2	na
38014	46	non	34	0	2	na
38014	0	non	46	0	2	na
38016	2	non	35	110	2	na
38016	0	non	47	110	2	na
38110	94	non	35	0	2	na
38110	0	non	47	0	2	na
38112	2	non	35	110	2	na
38112	0	non	47	110	2	na
38206	94	non	35	0	2	na
38206	0	non	47	0	2	na
38208	2	non	35	110	2	na
38208	0	non	47	110	2	na
38302	94	non	35	0	2	na
38302	0	non	47	0	2	na
38304	2	non	35	110	2	na
38304	0	non	47	110	2	na
38398	94	non	35	0	2	na
38398	0	non	47	0	2	na
38400	2	non	35	110	2	na
38400	0	non	47	110	2	na
38494	94	non	35	0	2	na
38494	0	non	47	0	2	na
38496	2	non	35	110	2	na
38496	0	non	47	110	2	na
38590	94	non	35	0	2	na
38590	0	non	47	0	2	na
38592	2	non	35	110	2	na
38592	0	non	47	110	2	na
38686	94	non	35	0	2	na
38686	0	non	47	0	2	na
38688	2	non	35	110	2	na
38688	0	non	47	110	2	na
38782	94	non	35	0	2	na
38782	0	non	47	0	2	na
38784	2	non	28	110	2	na
38784	0	non	40	110	2	na
38878	94	non	28	0	2	na
38878	0	non	40	0	2	na
38880	2	non	28	110	2	na
38880	0	non	40	110	2	na
38974	94	non	28	0	2	na
38974	0	non	40	0	2	na
38976	2	non	28	110	2	na
38976	0	non	40	110	2	na
39070	94	non	28	0	2	na
39070	0	non	40	0	2	na
39072	2	non	28	110	2	na
39072	0	non	40	110	2	na
39166	94	non	28	0	2	na
39166	0	non	40	0	2	na
39168	2	non	45	110	2	na
39328	160	non	45	0	2	na
39360	32	non	44	110	2	na
39520	160	non	44	0	2	na
39552	32	non	42	110	2	na
39712	160	non	42	0	2	na
39744	32	non	40	110	2	na
39904	160	non	40	0	2	na
39936	32	non	38	110	2	na
40030	94	non	38	0	2	na
40032	2	non	38	110	2	na
40126	94	non	38	0	2	na
40128	2	non	35	110	2	na
40222	94	non	35	0	2	na
40224	2	non	33	110	2	na
40318	94	non	33	0	2	na
40320	2	non	28	110	2	na
40320	0	non	40	110	2	na
40480	160	non	28	0	2	na
40480	0	non	40	0	2	na
40512	32	non	28	110	2	na
40512	0	non	40	110	2	na
40672	160	non	28	0	2	na
40672	0	non	40	0	2	na
40704	32	non	45	110	2	na
40864	160	non	45	0	2	na
40896	32	non	44	110	2	na
41056	160	non	44	0	2	na
41088	32	non	42	110	2	na
41248	160	non	42	0	2	na
41280	32	non	40	110	2	na
41440	160	non	40	0	2	na
41472	32	non	38	110	2	na
41566	94	non	38	0	2	na
41568	2	non	38	110	2	na
41662	94	non	38	0	2	na
41664	2	non	35	110	2	na
41758	94	non	35	0	2	na
41760	2	non	33	110	2	na
41854	94	non	33	0	2	na
41856	2	non	28	110	2	na
41856	0	non	40	110	2	na
42016	160	non	28	0	2	na
42016	0	non	40	0	2	na
42048	32	non	28	110	2	na
42048	0	non	40	110	2	na
42208	160	non	28	0	2	na
42208	0	non	40	0	2	na
42240	32	non	33	110	2	na
42240	0	non	45	110	2	na
42576	336	non	33	0	2	na
42576	0	non	45	0	2	na
